<?xml version="1.0" encoding="utf-8"?>
<!-- Generator: Adobe Illustrator 27.3.1, SVG Export Plug-In . SVG Version: 6.00 Build 0)  -->
<svg version="1.1" id="Layer_1" xmlns="http://www.w3.org/2000/svg" xmlns:xlink="http://www.w3.org/1999/xlink" x="0px" y="0px"
	 viewBox="0 0 1920 1080" style="enable-background:new 0 0 1920 1080;" xml:space="preserve">
<style type="text/css">
	.st0{fill:#7F52FF;}
	.st1{fill:#FFFFFF;}
	.st2{fill:#FE2857;}
</style>
<g>
	<g>
		<path class="st0" d="M790.1,284.9c-88.1,0-150.3-47-153.2-49.2c-8.3-6.4-9.9-18.3-3.5-26.6c6.4-8.3,18.3-9.9,26.6-3.5
			c0.4,0.3,17.7,13.3,45.7,24.5c37.2,14.9,74.9,20,112,15c10.4-1.4,20,5.9,21.4,16.3c1.4,10.4-5.9,20-16.3,21.4
			C811.6,284.2,800.7,284.9,790.1,284.9z"/>
	</g>
	<g>
		<path class="st0" d="M1116.6,260.1c-2.3,0-4.7,0-7-0.1c-10.5-0.3-18.7-9.1-18.4-19.6c0.3-10.5,9.2-18.7,19.6-18.4
			c67.9,2.2,117.6-34,139.7-65.7c6-8.6,17.8-10.8,26.4-4.8c8.6,6,10.8,17.8,4.8,26.4c-16.9,24.4-41.2,45-70.1,59.6
			C1182.3,252.4,1149.6,260.1,1116.6,260.1z"/>
	</g>
	<g>
		<path class="st0" d="M911.2,513.5c-10.4,0-18.9-8.4-19-18.8c-0.1-10.5,8.3-19.1,18.8-19.2l7.2-0.1c-8.2-25.8-12.5-57.5-12.2-91.2
			c0.2-20.8,2.3-40.6,5.9-57.3c4.2-19.4,10.5-33.8,18.6-42.8c7-7.8,19-8.4,26.8-1.4c7.8,7,8.4,19,1.4,26.8
			c-5.5,6.1-14.3,31.8-14.8,75c-0.4,40.3,6.8,77.8,19.2,100.4c3.2,5.9,3.1,13-0.2,18.8c-3.4,5.8-9.5,9.3-16.2,9.4l-35.4,0.3
			C911.3,513.5,911.2,513.5,911.2,513.5z"/>
	</g>
	<g>
		<path class="st0" d="M1120.8,439.5c-0.9,0-1.8-0.1-2.7-0.2c-10.4-1.5-17.6-11.1-16.2-21.4l1.6-11.4c-11.7-1.5-27-4.4-43.6-10.3
			c-47.1-16.7-82.6-49.1-102.5-93.6c-4.3-9.6,0-20.8,9.6-25.1c9.6-4.3,20.8,0,25.1,9.6c37.8,84.4,131.6,82.9,132.6,82.9
			c5.5-0.1,11,2.2,14.7,6.3c3.7,4.2,5.4,9.8,4.7,15.3l-4.4,31.5C1138.3,432.6,1130.2,439.5,1120.8,439.5z"/>
	</g>
	<g>
		<g>
			<g>
				<path class="st0" d="M841.4,326.5l257-17.4c20-1.4,35.1-18.7,33.8-38.7l-13.7-203.2c-2.2-32.5-40.6-48.6-65.3-27.4L965,115.5
					c-5,4.3-12.2,4.8-17.7,1.2L850,53.7C822.7,36,786.8,57.1,789,89.6l13.7,203.1C804.1,312.7,821.4,327.9,841.4,326.5z"/>
			</g>
			<g>
				<g>
					<path d="M1085.2,287.4l-234.2,15.7c-15.4,1-28.8-10.6-29.8-26.1l-7-103.7c-1-15.4,10.6-28.8,26.1-29.8l234.2-15.7
						c15.4-1,28.8,10.6,29.8,26.1l7,103.7C1112.3,273,1100.7,286.4,1085.2,287.4z"/>
				</g>
			</g>
			<g>
				<g>
					<path class="st1" d="M903,180c17,0,31.2,13.3,32.3,30.3c1.2,17.9-12.4,33.3-30.2,34.5c-0.7,0-1.5,0.1-2.2,0.1
						c-17,0-31.2-13.3-32.3-30.3c-1.2-17.9,12.4-33.3,30.2-34.5C901.6,180,902.3,180,903,180L903,180 M903,162c-1.1,0-2.3,0-3.4,0.1
						c-27.8,1.9-48.8,25.9-47,53.7c1.8,26.7,24,47.1,50.3,47.1c1.1,0,2.3,0,3.4-0.1c27.8-1.9,48.8-25.9,47-53.7
						C951.5,182.4,929.4,162,903,162L903,162z"/>
				</g>
				<g>
					<path class="st1" d="M1021.7,172.1c17,0,31.2,13.3,32.3,30.3c1.2,17.9-12.4,33.3-30.2,34.5c-0.7,0-1.5,0.1-2.2,0.1
						c-17,0-31.2-13.3-32.3-30.3c-0.6-8.6,2.2-17,8-23.5c5.7-6.5,13.6-10.4,22.3-11C1020.2,172.1,1021,172.1,1021.7,172.1
						L1021.7,172.1 M1021.7,154.1c-1.1,0-2.3,0-3.4,0.1c-27.8,1.9-48.8,25.9-47,53.7c1.8,26.7,24,47.1,50.3,47.1
						c1.1,0,2.3,0,3.4-0.1c27.8-1.9,48.8-25.9,47-53.7C1070.2,174.5,1048,154.1,1021.7,154.1L1021.7,154.1z"/>
				</g>
			</g>
		</g>
		<g>
			<path class="st1" d="M959.5,272.1c2.4,0.3,4.8,0.3,7.3,0c5.3-0.6,10.3-2.8,14.5-6c1.3-0.9,2.2-2.3,2.8-3.7c-1.5-0.6-3-1-4.6-1.2
				C971.1,260.2,963.1,264.7,959.5,272.1z"/>
			<path class="st1" d="M979.8,258.3c1.7,0.2,3.3,0.6,4.9,1.2c0.1-2.1-0.4-4.3-1.8-6c-3.2-3.8-8.3-4.2-12.6-1.6
				c-3,1.8-7.2,3.2-13.2,1.4c-2.3-0.7-4.7-0.9-7,0c-2,0.8-4,2.7-4.8,4.8c-0.8,2.2-1,4.8,0,7c1,2,2,3.5,4.8,4.8
				c2,0.9,4.1,1.3,6.3,1.7C960.3,262.6,969.8,257,979.8,258.3z"/>
		</g>
	</g>
</g>
<g>
	<g>
		<path class="st0" d="M822.8,1018.4c-2.3,0-4.6-0.4-6.8-1.3l-33.1-12.7c-9.8-3.7-14.7-14.7-11-24.5c3.7-9.8,14.7-14.7,24.5-11
			l13.6,5.2c13.4-43.1,51.2-138.4,127.5-155.5c10.2-2.3,20.4,4.1,22.7,14.4c2.3,10.2-4.1,20.4-14.4,22.7
			c-37.2,8.4-63.4,46.9-78.8,77.7c-17.8,35.7-25.8,69.9-25.8,70.2c-1.2,5.4-4.7,9.9-9.6,12.5C829,1017.7,825.9,1018.4,822.8,1018.4z
			"/>
	</g>
	<g>
		<path class="st0" d="M997.5,1067.3c-2.9,0-5.9-0.7-8.7-2.1c-9.3-4.8-13-16.3-8.2-25.6l7.5-14.5c-6.1-5.3-13.8-12.4-21.5-21.1
			c-24.1-26.8-37.9-54.6-41.1-82.6c-3.7-33.1,7.7-64.5,34-93.3c7.1-7.8,19.1-8.3,26.8-1.3c7.8,7.1,8.3,19.1,1.3,26.8
			c-18.8,20.7-26.8,41.5-24.3,63.5c4.5,40.5,44.7,76.7,59.8,87.2c7.8,5.5,10.4,15.8,6,24.3l-14.6,28.3
			C1011.1,1063.5,1004.4,1067.3,997.5,1067.3z"/>
	</g>
	<g>
		<g>
			<path class="st0" d="M1279.3,857.5c-140.1,0-185.3-70.7-187.2-73.8l32.4-19.9l-0.1-0.2c0.1,0.2,10.1,15.3,35.7,29.5
				c24,13.4,67.1,28.8,135.6,26c10.5-0.4,19.3,7.7,19.8,18.2c0.4,10.5-7.7,19.3-18.2,19.8C1291.1,857.4,1285.1,857.5,1279.3,857.5z"
				/>
		</g>
		<g>
			<path class="st0" d="M657.1,857.6c-5.4,0-10.8-0.2-16.2-0.7c-10.5-0.9-18.2-10.2-17.2-20.6c0.9-10.5,10.1-18.2,20.6-17.2
				c54.7,4.9,133.6-27.2,157.1-77.5c4.4-9.5,15.8-13.6,25.3-9.2c9.5,4.4,13.6,15.8,9.2,25.3c-13.1,27.9-41.1,54.8-77,73.8
				C726.4,848.5,690.9,857.6,657.1,857.6z"/>
		</g>
		<g>
			<path class="st0" d="M825.6,845.4l255.9,28.8c19.9,2.2,37.9-12.1,40.2-32l22.8-202.3c3.6-32.4-31.2-55.1-59.4-38.6l-100.2,58.6
				c-5.7,3.3-12.9,2.5-17.7-2l-84.4-79.3c-23.8-22.3-62.9-8-66.5,24.4l-22.8,202.3C791.3,825.2,805.7,843.2,825.6,845.4z"/>
		</g>
		<g>
			<g>
				<path d="M1072.5,850.5l-233.2-26.3c-15.4-1.7-26.4-15.6-24.7-31l11.7-103.3c1.7-15.4,15.6-26.4,31-24.7l233.2,26.3
					c15.4,1.7,26.4,15.6,24.7,31l-11.7,103.3C1101.8,841.2,1087.9,852.3,1072.5,850.5z"/>
			</g>
		</g>
		<g>
			<g>
				<g>
					<path class="st1" d="M944.1,806.7c6,2.7,12.6,4,19.2,3.6c6.4-0.3,13.2-2,18.4-5.9c1.9-1.4,3-4,1.6-6.2
						c-1.2-1.9-4.1-3.1-6.2-1.6c-1.1,0.8-2.3,1.5-3.5,2.2c-0.3,0.2-0.6,0.3-0.9,0.5c-0.8,0.4,0.5-0.2-0.1,0
						c-0.6,0.2-1.2,0.5-1.8,0.7c-1.4,0.4-2.8,0.8-4.2,1c-0.4,0.1-0.7,0.1-1.1,0.2c0.6-0.1,0.4-0.1-0.1,0c-0.7,0.1-1.5,0.1-2.2,0.2
						c-1.4,0.1-2.8,0.1-4.2,0c-0.7,0-1.5-0.1-2.2-0.2c-0.9-0.1,0.5,0.1-0.1,0c-0.4-0.1-0.7-0.1-1.1-0.2c-1.3-0.2-2.7-0.5-4-0.9
						c-0.7-0.2-1.3-0.4-2-0.6c-0.3-0.1-0.5-0.2-0.8-0.3c-1.1-0.4,0.5,0.2-0.3-0.1c-2.1-1-4.9-0.7-6.2,1.6
						C941.4,802.5,941.8,805.7,944.1,806.7L944.1,806.7z"/>
				</g>
			</g>
		</g>
		<g>
			<g>
				<path class="st1" d="M906.6,711c1.2,0,2.5,0.1,3.7,0.2c8.6,1,16.3,5.2,21.7,12s7.8,15.3,6.9,23.9c-1.9,16.4-15.7,28.8-32.2,28.8
					c-1.2,0-2.5-0.1-3.7-0.2c-8.6-1-16.3-5.2-21.7-12c-5.4-6.8-7.8-15.3-6.9-23.9C876.3,723.3,890.1,711,906.6,711
					C906.6,711,906.6,711,906.6,711 M906.6,693c-25.3,0-47.1,19-50.1,44.8c-3.1,27.7,16.8,52.7,44.4,55.8c1.9,0.2,3.8,0.3,5.8,0.3
					c25.3,0,47.1-19,50.1-44.8c3.1-27.7-16.8-52.7-44.4-55.8C910.4,693.1,908.5,693,906.6,693L906.6,693z"/>
			</g>
			<g>
				<path class="st1" d="M1024.8,724.4c1.2,0,2.5,0.1,3.7,0.2c8.6,1,16.3,5.2,21.7,12s7.8,15.3,6.9,23.9
					c-1.9,16.4-15.7,28.8-32.2,28.8c-1.2,0-2.5-0.1-3.7-0.2c-8.6-1-16.3-5.2-21.7-12s-7.8-15.3-6.9-23.9
					C994.5,736.8,1008.3,724.4,1024.8,724.4C1024.8,724.4,1024.8,724.4,1024.8,724.4 M1024.8,706.4c-25.3,0-47.1,19-50.1,44.8
					c-3.1,27.7,16.8,52.7,44.4,55.8c1.9,0.2,3.8,0.3,5.7,0.3c25.3,0,47.1-19,50.1-44.8c3.1-27.7-16.8-52.7-44.4-55.8
					C1028.6,706.5,1026.7,706.4,1024.8,706.4L1024.8,706.4z"/>
			</g>
		</g>
	</g>
	<g>
		<path class="st0" d="M1345.5,857.6h-759c-0.8,0-1.5-0.7-1.5-1.5s0.7-1.5,1.5-1.5h759c0.8,0,1.5,0.7,1.5,1.5
			S1346.3,857.6,1345.5,857.6z"/>
	</g>
</g>
<g>
	<g>
		<path class="st0" d="M1732.7,806.5c-7.8,0-15.1-4.8-17.9-12.6c-3.5-9.9,1.6-20.8,11.5-24.3c38.3-13.7,66.8-38,84.6-72.1
			c13.7-26.1,15.8-48.6,15.8-48.9c0.8-10.5,10-18.2,20.5-17.4c10.5,0.8,18.2,10.1,17.4,20.5c-0.1,1.2-2.5,29.1-19.2,61.7
			c-15.4,30.1-46.3,70.5-106.4,92C1737,806.1,1734.9,806.5,1732.7,806.5z"/>
	</g>
	<g>
		<path class="st0" d="M1659.6,1067.3h-35.4c-6.8,0-13.2-3.6-16.6-9.5s-3.3-13.2,0.2-19c0.1-0.1,11.2-20,15.1-52.4
			c5.1-43.2-4.6-87.2-28.8-130.7c-5.1-9.2-1.8-20.7,7.4-25.8c9.2-5.1,20.7-1.8,25.8,7.4c35.6,64.1,37.6,120.1,33,155.9
			c-1.8,14.2-4.8,26.4-7.9,36.3h7.1c10.5,0,19,8.5,19,19S1670.1,1067.3,1659.6,1067.3z"/>
	</g>
	<g>
		<path class="st0" d="M1530.4,1067.3H1495c-10.5,0-19-8.5-19-19s8.5-19,19-19h23.9c11.3-23.1,38.1-88.7,33.6-179.5
			c-0.5-10.5,7.6-19.4,18-19.9c10.5-0.5,19.4,7.6,19.9,18c6.2,126.1-41.8,206.8-43.9,210.2C1543.2,1063.8,1537,1067.3,1530.4,1067.3
			z"/>
	</g>
	<g>
		<path class="st0" d="M1395.1,835.9c-1.7,0-3.4-0.1-5.1-0.2c-24.2-1.8-52.6-17.2-60.1-55c-2.2-10.9-0.7-21.9,0.7-32.5
			c3-22.9,3.6-33.5-14.6-43.7c-9.2-5.1-12.4-16.7-7.3-25.9c5.1-9.2,16.7-12.4,25.9-7.3c18.1,10.1,29.4,24.1,33.6,41.6
			c3.5,14.3,1.7,28,0.1,40.2c-1,7.9-2,15.3-1.1,20.2c1.4,6.9,6.6,23,25.6,24.4c7.8,0.6,14.2-2,19.8-7.9c5.2-5.6,8.3-12.9,9-17.3
			c1.6-10.4,11.3-17.5,21.7-15.9c10.4,1.6,17.5,11.3,15.9,21.7C1455.5,802.9,1433.2,835.9,1395.1,835.9z"/>
	</g>
	<g>
		<g>
			<g>
				<path class="st0" d="M1463.9,876l256.9-18c20-1.4,35.1-18.8,33.7-38.8l-14.2-203.1c-2.3-32.5-40.7-48.5-65.4-27.3l-87.9,75.7
					c-5,4.3-12.2,4.8-17.7,1.2l-97.4-62.7c-27.4-17.7-63.3,3.5-61,36.1l14.2,203.1C1426.6,862.3,1443.9,877.4,1463.9,876z"/>
			</g>
			<g>
				<g>
					<path d="M1708.3,839.3l-234.2,16.3c-15.4,1.1-28.8-10.6-29.9-26l-7.2-103.7c-1.1-15.4,10.6-28.8,26-29.9l234.2-16.3
						c15.4-1.1,28.8,10.6,29.9,26l7.2,103.7C1735.3,824.9,1723.7,838.3,1708.3,839.3z"/>
				</g>
			</g>
			<g>
				<g>
					<g>
						<path class="st1" d="M1566,812.5c7,2.8,15,3.5,22.4,2.8c7.8-0.7,15.6-2.6,22.3-6.7c2-1.2,3-4.1,1.6-6.2c-1.3-2-4-2.9-6.2-1.6
							c-1.4,0.9-2.9,1.6-4.5,2.3c0.7-0.3,0.2-0.1-0.2,0.1c-0.4,0.2-0.9,0.3-1.3,0.5c-0.8,0.3-1.6,0.5-2.4,0.8
							c-1.7,0.5-3.4,0.9-5.1,1.2c-0.5,0.1-1,0.2-1.5,0.3c-0.1,0-1.4,0.2-0.3,0.1c-0.9,0.1-1.9,0.2-2.8,0.3
							c-3.6,0.3-7.1,0.2-10.7-0.2c-0.9-0.1,0.8,0.1-0.4-0.1c-0.4-0.1-0.8-0.1-1.2-0.2c-0.8-0.1-1.6-0.3-2.4-0.5
							c-1.6-0.4-3.3-0.9-4.8-1.6c-2.2-0.9-5,1-5.5,3.1C1562.3,809.6,1563.7,811.6,1566,812.5L1566,812.5z"/>
					</g>
				</g>
			</g>
		</g>
	</g>
	<g>
		<g>
			<path class="st0" d="M1823.5,548.8c-7.1-2.6-14.6-1.2-20.2,3c-1.6-6.8-6.5-12.7-13.6-15.2c-11.1-4-23.4,1.7-27.4,12.9
				c-8.1,22.4,13.1,49.4,20.8,58.2c11.5-1.8,45.1-9,53.2-31.4C1840.4,565.1,1834.6,552.8,1823.5,548.8z"/>
		</g>
	</g>
	<g>
		<g>
			<path class="st0" d="M1358,595.9c-3.7,1.4-6.2,4.6-7,8.2c-3-2.1-7-2.8-10.7-1.4c-5.8,2.2-8.7,8.8-6.4,14.6
				c4.5,11.7,22.3,15.1,28.4,15.9c3.9-4.7,14.8-19.2,10.3-30.8C1370.4,596.5,1363.8,593.6,1358,595.9z"/>
		</g>
	</g>
	<g>
		<g>
			<g>
				<path class="st1" d="M1515.7,734.7L1515.7,734.7c4.7-0.3,8.8,3.2,9.1,7.9l0,0c0.3,4.7-3.2,8.8-7.9,9.1l0,0
					c-4.7,0.3-8.8-3.2-9.1-7.9l0,0C1507.5,739.1,1511,735.1,1515.7,734.7z"/>
			</g>
			<g>
				<path class="st1" d="M1500.2,737.1L1500.2,737.1c-4.7,0.3-8.8-3.2-9.1-7.9v0c-0.3-4.7,3.2-8.8,7.9-9.1l0,0
					c4.7-0.3,8.8,3.2,9.1,7.9l0,0C1508.4,732.7,1504.8,736.8,1500.2,737.1z"/>
			</g>
			<g>
				<path class="st1" d="M1477.3,721.7L1477.3,721.7c4.7-0.3,8.8,3.2,9.1,7.9l0,0c0.3,4.7-3.2,8.8-7.9,9.1l0,0
					c-4.7,0.3-8.8-3.2-9.1-7.9l0,0C1469.1,726,1472.6,722,1477.3,721.7z"/>
			</g>
			<g>
				<path class="st1" d="M1477.5,748L1477.5,748c1.1,4.6-1.8,9.2-6.4,10.2l0,0c-4.6,1.1-9.2-1.8-10.2-6.4l0,0
					c-1.1-4.6,1.8-9.2,6.4-10.2l0,0C1471.9,740.6,1476.4,743.4,1477.5,748z"/>
			</g>
			<g>
				<path class="st1" d="M1464.5,773.1L1464.5,773.1c-1.1-4.6,1.8-9.2,6.4-10.2l0,0c4.6-1.1,9.2,1.8,10.2,6.4v0
					c1.1,4.6-1.8,9.2-6.4,10.2l0,0C1470.1,780.6,1465.6,777.7,1464.5,773.1z"/>
			</g>
			<g>
				<path class="st1" d="M1491,780.7L1491,780.7c3.5,3.1,3.9,8.5,0.8,12l0,0c-3.1,3.5-8.5,3.9-12,0.8l0,0c-3.5-3.1-3.9-8.5-0.8-12
					l0,0C1482.1,778,1487.4,777.6,1491,780.7z"/>
			</g>
			<g>
				<path class="st1" d="M1495.9,806.7L1495.9,806.7c-3.5-3.1-3.9-8.5-0.8-12l0,0c3.1-3.5,8.5-3.9,12-0.8l0,0
					c3.5,3.1,3.9,8.5,0.8,12v0C1504.9,809.4,1499.5,809.7,1495.9,806.7z"/>
			</g>
			<g>
				<path class="st1" d="M1515.4,816.8L1515.4,816.8c-3.5-3.1-3.9-8.5-0.8-12l0,0c3.1-3.5,8.5-3.9,12-0.8l0,0
					c3.5,3.1,3.9,8.5,0.8,12l0,0C1524.3,819.6,1518.9,819.9,1515.4,816.8z"/>
			</g>
		</g>
		<g>
			<g>
				<path class="st1" d="M1515.7,734.7L1515.7,734.7c-4.7,0.3-8.2,4.4-7.9,9.1l0,0c0.3,4.7,4.4,8.2,9.1,7.9l0,0
					c4.7-0.3,8.2-4.4,7.9-9.1l0,0C1524.5,738,1520.4,734.4,1515.7,734.7z"/>
			</g>
			<g>
				<path class="st1" d="M1531.5,735L1531.5,735c4.7-0.3,8.2-4.4,7.9-9.1l0,0c-0.3-4.7-4.4-8.2-9.1-7.9l0,0
					c-4.7,0.3-8.2,4.4-7.9,9.1l0,0C1522.7,731.7,1526.8,735.3,1531.5,735z"/>
			</g>
			<g>
				<path class="st1" d="M1551.9,716.5L1551.9,716.5c-4.7,0.3-8.2,4.4-7.9,9.1v0c0.3,4.7,4.4,8.2,9.1,7.9l0,0
					c4.7-0.3,8.2-4.4,7.9-9.1l0,0C1560.7,719.7,1556.6,716.1,1551.9,716.5z"/>
			</g>
			<g>
				<path class="st1" d="M1555.4,742.6L1555.4,742.6c-0.4,4.7,3,8.8,7.7,9.2l0,0c4.7,0.4,8.8-3,9.2-7.7l0,0c0.4-4.7-3-8.8-7.7-9.2
					l0,0C1560,734.5,1555.8,737.9,1555.4,742.6z"/>
			</g>
			<g>
				<path class="st1" d="M1571.8,765.7L1571.8,765.7c0.4-4.7-3-8.8-7.7-9.2l0,0c-4.7-0.4-8.8,3-9.2,7.7l0,0c-0.4,4.7,3,8.8,7.7,9.2
					l0,0C1567.2,773.8,1571.3,770.4,1571.8,765.7z"/>
			</g>
			<g>
				<path class="st1" d="M1546.6,776.8L1546.6,776.8c-3.1,3.5-2.7,8.9,0.8,12l0,0c3.5,3.1,8.9,2.7,12-0.8v0c3.1-3.5,2.7-8.9-0.8-12
					l0,0C1555,772.9,1549.7,773.3,1546.6,776.8z"/>
			</g>
			<g>
				<path class="st1" d="M1545.2,803.2L1545.2,803.2c3.1-3.5,2.7-8.9-0.8-12l0,0c-3.5-3.1-8.9-2.7-12,0.8l0,0
					c-3.1,3.5-2.7,8.9,0.8,12l0,0C1536.8,807.1,1542.2,806.8,1545.2,803.2z"/>
			</g>
			<g>
				<path class="st1" d="M1527.4,816L1527.4,816c3.1-3.5,2.7-8.9-0.8-12l0,0c-3.5-3.1-8.9-2.7-12,0.8l0,0c-3.1,3.5-2.7,8.9,0.8,12
					l0,0C1518.9,819.9,1524.3,819.6,1527.4,816z"/>
			</g>
		</g>
	</g>
	<g>
		<g>
			<g>
				<path class="st1" d="M1653.8,726.2L1653.8,726.2c4.7-0.3,8.8,3.2,9.1,7.9l0,0c0.3,4.7-3.2,8.8-7.9,9.1l0,0
					c-4.7,0.3-8.8-3.2-9.1-7.9h0C1645.5,730.6,1649.1,726.6,1653.8,726.2z"/>
			</g>
			<g>
				<path class="st1" d="M1638.2,728.6L1638.2,728.6c-4.7,0.3-8.8-3.2-9.1-7.9l0,0c-0.3-4.7,3.2-8.8,7.9-9.1l0,0
					c4.7-0.3,8.8,3.2,9.1,7.9l0,0C1646.4,724.2,1642.9,728.3,1638.2,728.6z"/>
			</g>
			<g>
				<path class="st1" d="M1615.4,713.1L1615.4,713.1c4.7-0.3,8.8,3.2,9.1,7.9l0,0c0.3,4.7-3.2,8.8-7.9,9.1l0,0
					c-4.7,0.3-8.8-3.2-9.1-7.9l0,0C1607.1,717.5,1610.7,713.5,1615.4,713.1z"/>
			</g>
			<g>
				<path class="st1" d="M1615.5,739.5L1615.5,739.5c1.1,4.6-1.8,9.2-6.4,10.2l0,0c-4.6,1.1-9.2-1.8-10.2-6.4l0,0
					c-1.1-4.6,1.8-9.2,6.4-10.2l0,0C1609.9,732.1,1614.5,734.9,1615.5,739.5z"/>
			</g>
			<g>
				<path class="st1" d="M1602.5,764.6L1602.5,764.6c-1.1-4.6,1.8-9.2,6.4-10.2l0,0c4.6-1.1,9.2,1.8,10.2,6.4l0,0
					c1.1,4.6-1.8,9.2-6.4,10.2h0C1608.2,772,1603.6,769.2,1602.5,764.6z"/>
			</g>
			<g>
				<path class="st1" d="M1629,772.2L1629,772.2c3.5,3.1,3.9,8.5,0.8,12h0c-3.1,3.5-8.5,3.9-12,0.8l0,0c-3.5-3.1-3.9-8.5-0.8-12l0,0
					C1620.1,769.5,1625.5,769.1,1629,772.2z"/>
			</g>
			<g>
				<path class="st1" d="M1634,798.1L1634,798.1c-3.5-3.1-3.9-8.5-0.8-12l0,0c3.1-3.5,8.5-3.9,12-0.8v0c3.5,3.1,3.9,8.5,0.8,12l0,0
					C1642.9,800.8,1637.5,801.2,1634,798.1z"/>
			</g>
			<g>
				<path class="st1" d="M1653.4,808.3L1653.4,808.3c-3.5-3.1-3.9-8.5-0.8-12l0,0c3.1-3.5,8.5-3.9,12-0.8l0,0
					c3.5,3.1,3.9,8.5,0.8,12v0C1662.4,811,1657,811.4,1653.4,808.3z"/>
			</g>
		</g>
		<g>
			<g>
				<path class="st1" d="M1653.8,726.2L1653.8,726.2c-4.7,0.3-8.2,4.4-7.9,9.1l0,0c0.3,4.7,4.4,8.2,9.1,7.9l0,0
					c4.7-0.3,8.2-4.4,7.9-9.1l0,0C1662.5,729.4,1658.4,725.9,1653.8,726.2z"/>
			</g>
			<g>
				<path class="st1" d="M1669.5,726.4L1669.5,726.4c4.7-0.3,8.2-4.4,7.9-9.1l0,0c-0.3-4.7-4.4-8.2-9.1-7.9h0
					c-4.7,0.3-8.2,4.4-7.9,9.1l0,0C1660.7,723.2,1664.8,726.8,1669.5,726.4z"/>
			</g>
			<g>
				<path class="st1" d="M1690,708L1690,708c-4.7,0.3-8.2,4.4-7.9,9.1l0,0c0.3,4.7,4.4,8.2,9.1,7.9h0c4.7-0.3,8.2-4.4,7.9-9.1l0,0
					C1698.7,711.2,1694.7,707.6,1690,708z"/>
			</g>
			<g>
				<path class="st1" d="M1693.5,734.1L1693.5,734.1c-0.4,4.7,3,8.8,7.7,9.2l0,0c4.7,0.4,8.8-3,9.2-7.7v0c0.4-4.7-3-8.8-7.7-9.2l0,0
					C1698,726,1693.9,729.4,1693.5,734.1z"/>
			</g>
			<g>
				<path class="st1" d="M1709.8,757.2L1709.8,757.2c0.4-4.7-3-8.8-7.7-9.2v0c-4.7-0.4-8.8,3-9.2,7.7l0,0c-0.4,4.7,3,8.8,7.7,9.2
					l0,0C1705.2,765.3,1709.4,761.8,1709.8,757.2z"/>
			</g>
			<g>
				<path class="st1" d="M1684.6,768.3L1684.6,768.3c-3.1,3.5-2.7,8.9,0.8,12l0,0c3.5,3.1,8.9,2.7,12-0.8l0,0
					c3.1-3.5,2.7-8.9-0.8-12l0,0C1693.1,764.4,1687.7,764.8,1684.6,768.3z"/>
			</g>
			<g>
				<path class="st1" d="M1683.3,794.7L1683.3,794.7c3.1-3.5,2.7-8.9-0.8-12l0,0c-3.5-3.1-8.9-2.7-12,0.8h0c-3.1,3.5-2.7,8.9,0.8,12
					l0,0C1674.8,798.6,1680.2,798.3,1683.3,794.7z"/>
			</g>
			<g>
				<path class="st1" d="M1665.4,807.5L1665.4,807.5c3.1-3.5,2.7-8.9-0.8-12l0,0c-3.5-3.1-8.9-2.7-12,0.8l0,0
					c-3.1,3.5-2.7,8.9,0.8,12l0,0C1657,811.4,1662.4,811,1665.4,807.5z"/>
			</g>
		</g>
	</g>
</g>
<g>
	<g>
		<g>
			<path class="st0" d="M248.4,1067.3c-6.1,0-12.1-2.9-15.7-8.3l-19.9-29.4c-3.3-4.9-4.2-11-2.3-16.6c1.8-5.6,6.1-10,11.7-12
				c0.3-0.1,34.7-12.6,64.5-37c16.5-13.5,28.4-28,35.3-43c8.3-18,9.5-36.5,3.6-56.6c-2.9-10.1,2.8-20.6,12.9-23.6
				c10.1-2.9,20.6,2.8,23.6,12.9c15.1,51.9-2.9,100.4-52.2,140.3c-18.6,15.1-38.2,26-52.8,33.1l7.1,10.4c5.9,8.7,3.6,20.5-5.1,26.4
				C255.7,1066.2,252,1067.3,248.4,1067.3z"/>
		</g>
		<g>
			<path class="st0" d="M539.8,1032.1c-2.2,0-4.4-0.4-6.5-1.2c-9.9-3.6-14.9-14.5-11.3-24.4l4.3-11.8c-15.8-3.3-37.5-9.2-59.2-19.3
				c-57.5-26.7-86.8-69.4-84.7-123.4c0.4-10.5,9.2-18.7,19.7-18.3c10.5,0.4,18.7,9.2,18.3,19.7c-0.8,20.9,4.8,38.6,17.3,54.1
				c10.4,12.9,25.4,24,44.7,33.1c34.8,16.4,71.2,20.2,71.6,20.2c5.8,0.6,11.1,3.8,14.2,8.8c3.1,5,3.8,11.1,1.8,16.6l-12.2,33.3
				C554.8,1027.3,547.5,1032.1,539.8,1032.1z"/>
		</g>
		<g>
			<path class="st0" d="M517.1,820.5c-3,0-6-0.7-8.8-2.2c-9.3-4.9-12.9-16.4-8-25.7c21.9-41.6,57.7-73,103.5-90.8
				c34.3-13.3,62.4-14.3,63.6-14.3c10.5-0.3,19.3,7.9,19.6,18.4c0.3,10.5-7.9,19.2-18.3,19.6c-0.4,0-23.9,1.1-52.3,12.3
				c-37,14.6-64.7,39.1-82.4,72.6C530.6,816.8,524,820.5,517.1,820.5z"/>
		</g>
		<g>
			<path class="st0" d="M229,840.8c-4.8,0-9.6-1.8-13.3-5.5c-27.6-27.2-62.5-44.8-103.9-52.3c-31.5-5.8-55.2-3.2-55.4-3.2
				c-10.4,1.2-19.8-6.3-21-16.7c-1.2-10.4,6.2-19.8,16.6-21c4.5-0.5,110.9-12.1,190.3,66.2c7.5,7.4,7.6,19.4,0.2,26.9
				C238.9,838.9,234,840.8,229,840.8z"/>
		</g>
		<g>
			<g>
				<path class="st0" d="M249,883.2l256.9-18c20-1.4,35.1-18.8,33.7-38.8l-14.2-203.1c-2.3-32.5-40.7-48.5-65.4-27.3l-87.9,75.7
					c-5,4.3-12.2,4.8-17.7,1.2L257,610.3c-27.4-17.7-63.3,3.5-61,36.1l14.2,203.1C211.6,869.5,229,884.6,249,883.2z"/>
			</g>
			<g>
				<g>
					<path d="M493.3,846.5l-234.2,16.3c-15.4,1.1-28.8-10.6-29.9-26l-7.2-103.7c-1.1-15.4,10.6-28.8,26-29.9L482.2,687
						c15.4-1.1,28.8,10.6,29.9,26l7.2,103.7C520.4,832.1,508.7,845.5,493.3,846.5z"/>
				</g>
			</g>
		</g>
		<g>
			<path class="st1" d="M375.5,813.8c-6.2,0-11.2-5-11.2-11.2s5-11.2,11.2-11.2c6.2,0,11.2,5,11.2,11.2S381.7,813.8,375.5,813.8z
				 M375.5,797.3c-2.9,0-5.2,2.4-5.2,5.2s2.4,5.2,5.2,5.2c2.9,0,5.2-2.4,5.2-5.2S378.4,797.3,375.5,797.3z"/>
		</g>
	</g>
	<g>
		<g>
			<path class="st1" d="M280.8,777.4c-0.6-8.6,2.2-17,7.9-23.6c5.7-6.5,13.6-10.5,22.2-11.1c0.8-0.1,1.5-0.1,2.3-0.1c0,0,0,0,0,0
				c16.9,0,31.1,13.3,32.3,30.2c0.1,1.2,0.1,2.4,0.1,3.6c-0.2,5.4,4.3,9.7,9.6,9.3l0,0c4.5-0.3,8.2-4,8.4-8.5
				c0.1-1.9,0.1-3.8-0.1-5.7c-1.9-26.6-24-46.9-50.3-46.9c-1.2,0-2.4,0-3.6,0.1c-27.8,1.9-48.7,26.1-46.8,53.8
				c0.1,1.9,0.4,3.8,0.7,5.6c0.8,4.5,4.9,7.6,9.5,7.3l0,0c5.4-0.4,9.2-5.3,8.2-10.6C281.1,779.8,280.9,778.6,280.8,777.4z"/>
		</g>
		<g>
			<path class="st1" d="M399.5,769.2c-0.6-8.6,2.2-17,7.9-23.6c5.7-6.5,13.6-10.5,22.2-11.1c0.8-0.1,1.5-0.1,2.3-0.1c0,0,0,0,0,0
				c16.9,0,31.1,13.3,32.3,30.2c0.1,1.2,0.1,2.4,0.1,3.6c-0.2,5.4,4.3,9.7,9.6,9.3h0c4.5-0.3,8.2-4,8.4-8.5c0.1-1.9,0.1-3.7-0.1-5.6
				c-1.9-26.6-24-46.9-50.3-46.9c-1.2,0-2.4,0-3.6,0.1c-27.8,1.9-48.7,26.1-46.8,53.8c0.1,1.9,0.4,3.8,0.7,5.6
				c0.8,4.5,4.9,7.6,9.5,7.3h0c5.4-0.4,9.2-5.3,8.2-10.6C399.7,771.5,399.6,770.4,399.5,769.2z"/>
		</g>
	</g>
	<g>
		<path class="st0" d="M566.1,948.9c-0.8,0-1.5-0.7-1.5-1.5v-49.8c0-0.8,0.7-1.5,1.5-1.5s1.5,0.7,1.5,1.5v49.8
			C567.6,948.2,566.9,948.9,566.1,948.9z"/>
	</g>
	<g>
		<path class="st0" d="M579,953.5c-0.4,0-0.8-0.1-1.1-0.4c-0.6-0.6-0.6-1.5,0-2.1l19.1-19.1c0.6-0.6,1.5-0.6,2.1,0
			c0.6,0.6,0.6,1.5,0,2.1L580.1,953C579.8,953.3,579.4,953.5,579,953.5z"/>
	</g>
	<g>
		<path class="st0" d="M219.4,989.2c-0.8,0-1.5-0.7-1.5-1.5v-49.8c0-0.8,0.7-1.5,1.5-1.5s1.5,0.7,1.5,1.5v49.8
			C220.9,988.5,220.3,989.2,219.4,989.2z"/>
	</g>
	<g>
		<path class="st0" d="M204.6,994.6c-0.4,0-0.8-0.1-1.1-0.4l-19.1-19.1c-0.6-0.6-0.6-1.5,0-2.1c0.6-0.6,1.5-0.6,2.1,0l19.1,19.1
			c0.6,0.6,0.6,1.5,0,2.1C205.4,994.4,205,994.6,204.6,994.6z"/>
	</g>
</g>
<g>
	<g>
		<g>
			<path class="st0" d="M1326.8,402.3c-1.3,0-2.7-0.1-4-0.4c-10.3-2.2-16.8-12.3-14.6-22.6c0.8-4,21.8-97.5,120.3-149.4
				c9.3-4.9,20.8-1.3,25.7,8c4.9,9.3,1.3,20.8-8,25.7c-34.4,18.1-61.8,44.3-81.4,77.8c-14.9,25.4-19.5,45.7-19.5,45.9
				C1343.4,396.2,1335.6,402.3,1326.8,402.3z"/>
		</g>
		<g>
			<path class="st0" d="M1726.8,236.1c-6.8,0-13.4-3.7-16.8-10.2c-4.9-9.3-1.3-20.8,8-25.7c34.5-18.2,63.1-46.1,85-82.8
				c16.6-28,22.9-50.9,23-51.1c2.7-10.1,13.1-16.2,23.2-13.5c10.1,2.7,16.2,13,13.5,23.2c-1.1,4.3-29,106.3-127,157.9
				C1732.8,235.4,1729.7,236.1,1726.8,236.1z"/>
		</g>
		<g>
			<path class="st0" d="M1559.7,513.5h-35.4c-10.5,0-19-8.5-19-19s8.5-19,19-19h9.6c-12.5-46.3-30.3-143.6,22.1-198.2
				c7.3-7.6,19.3-7.8,26.9-0.5c7.6,7.3,7.8,19.3,0.5,26.9c-26.5,27.5-27.1,74.9-23,109.8c4.8,40.4,17,74.1,17.1,74.4
				c2.1,5.8,1.3,12.3-2.3,17.4C1571.7,510.4,1565.9,513.5,1559.7,513.5z"/>
		</g>
		<g>
			<path class="st0" d="M1742.3,453.8c-5,0-9.9-2-13.6-5.7l-143.6-146.3c-7.4-7.5-7.2-19.5,0.2-26.9c7.5-7.4,19.5-7.2,26.9,0.2
				l133.6,136.1l18.7-10c9.2-5,20.8-1.5,25.7,7.7c5,9.2,1.5,20.8-7.7,25.7l-31.2,16.8C1748.5,453,1745.4,453.8,1742.3,453.8z"/>
		</g>
	</g>
	<g>
		<g>
			<path class="st0" d="M1458.8,317.8l256.9-18c20-1.4,35.1-18.8,33.7-38.8L1735.2,58c-2.3-32.5-40.7-48.5-65.4-27.3l-87.9,75.7
				c-5,4.3-12.2,4.8-17.7,1.2L1466.8,45c-27.4-17.7-63.3,3.5-61,36.1l14.2,203.1C1421.4,304.1,1438.8,319.2,1458.8,317.8z"/>
		</g>
		<g>
			<g>
				<path d="M1703.1,281.2L1469,297.5c-15.4,1.1-28.8-10.6-29.9-26l-7.2-103.7c-1.1-15.4,10.6-28.8,26-29.9l234.2-16.3
					c15.4-1.1,28.8,10.6,29.9,26l7.2,103.7C1730.2,266.7,1718.6,280.1,1703.1,281.2z"/>
			</g>
		</g>
		<g>
			<path class="st1" d="M1565.6,204.2c-2.9-25.7-24.8-44.7-50.1-44.7c-1.9,0-3.8,0.1-5.8,0.3c-27.7,3.2-47.6,28.2-44.4,55.8
				c2.9,25.7,24.8,44.7,50.1,44.7c1.9,0,3.8-0.1,5.8-0.3C1548.9,256.9,1568.8,231.9,1565.6,204.2z M1540.9,230.1
				c-5.4,6.8-13.1,11.1-21.7,12c-1.2,0.1-2.5,0.2-3.7,0.2c-16.5,0-30.3-12.4-32.2-28.8c-2-17.8,10.8-33.9,28.6-35.9
				c1.2-0.1,2.5-0.2,3.7-0.2v0l0,0c16.5,0,30.3,12.4,32.2,28.8C1548.7,214.9,1546.3,223.3,1540.9,230.1z"/>
			<g>
				<g>
					<g>
						<path class="st1" d="M1570.4,259.1c11.1,5.7,26.4,3.4,35-5.7c2.6-2.8,4.6-6.2,5.6-9.9c0.6-2.3-0.8-5-3.1-5.5
							c-2.4-0.5-4.8,0.7-5.5,3.1c-0.2,0.6-0.4,1.2-0.6,1.9c-0.2,0.5,0.1-0.4,0.2-0.4c0,0-0.2,0.4-0.2,0.4c-0.2,0.3-0.3,0.6-0.5,0.9
							c-0.3,0.6-0.6,1.1-1,1.6c-0.1,0.1-0.2,0.2-0.2,0.4c-0.2,0.3-0.1,0.3,0,0c0.1-0.3,0.2-0.3,0,0c-0.1,0.1-0.2,0.3-0.4,0.4
							c-0.2,0.2-2.5,2.8-2.7,2.6c0,0,0.8-0.5,0.3-0.3c-0.1,0.1-0.2,0.2-0.4,0.3c-0.3,0.2-0.6,0.4-0.8,0.6c-0.5,0.3-1.1,0.7-1.6,1
							c-0.6,0.3-1.1,0.6-1.7,0.9c-0.1,0-0.4,0.2-0.4,0.2c0,0,0.9-0.3,0.4-0.2c-0.3,0.1-0.6,0.2-1,0.4c-1.2,0.4-2.5,0.8-3.7,1
							c-0.3,0.1-0.7,0.1-1,0.2c-0.2,0-1.1,0.3-0.4,0.1c0.6-0.2-0.2,0-0.4,0c-0.4,0-0.8,0.1-1.2,0.1c-1.3,0.1-2.5,0-3.8-0.1
							c-0.3,0-0.7-0.2-1-0.1c0,0,1,0.2,0.5,0.1c-0.2,0-0.4-0.1-0.6-0.1c-0.7-0.1-1.4-0.3-2.1-0.5c-0.6-0.2-1.3-0.4-1.9-0.6
							c-0.1,0-0.4-0.2-0.5-0.2c0.1,0,0.9,0.4,0.3,0.1c-0.3-0.2-0.7-0.3-1-0.5c-2.1-1.1-5-0.6-6.2,1.6
							C1567.7,255,1568.2,258,1570.4,259.1L1570.4,259.1z"/>
					</g>
				</g>
			</g>
			<g>
				<path class="st1" d="M1610.6,223c-5.3,0-10.9-1.7-16.4-6.5c0,0,0,0,0,0c-7-6.1-9.6-15.6-6.9-25.4c4.6-16.6,22-29.1,46.6-33.4
					c13.2-2.3,25.1-1.6,35.4,2.2c9.1,3.3,16.7,9.1,21.4,16.2c6,9.1,6.7,19.5,1.7,27.2c-11.1,17-29.1,12.7-39.8,10.2
					c-3.9-0.9-8-1.9-10.2-1.7c-3.1,0.4-7,2.4-11.1,4.6C1625.7,219.2,1618.5,223,1610.6,223z M1606,202.9c4,3.5,7.1,2.7,16.9-2.5
					c5.2-2.7,11-5.8,17.5-6.6c5.4-0.6,11,0.7,16.4,2c12.5,3,16.9,3,20.5-2.5c0.8-1.2,0.5-4.2-1.7-7.4c-4.9-7.5-17.7-14.2-38.7-10.5
					c-20.7,3.6-30.4,13.3-32.4,20.5C1604.1,197.6,1603.7,200.9,1606,202.9L1606,202.9z"/>
			</g>
		</g>
	</g>
</g>
<g>
	<g>
		<g>
			<path class="st0" d="M456.1,487c-10.5,0-19-8.5-19-19v-14.3c-28.3-4.1-61.7-17.6-85.9-45.8c-17.1-20-35.8-55.1-27.5-109
				c1.6-10.4,11.3-17.5,21.7-15.9c10.4,1.6,17.5,11.3,15.9,21.7c-4.9,31.8,1.4,58.2,18.8,78.5c21.5,25.1,54.4,33.9,76,33.9
				c0,0,0.1,0,0.1,0c5,0,9.9,2,13.4,5.6c3.6,3.6,5.6,8.4,5.6,13.4V468C475.1,478.5,466.5,487,456.1,487z"/>
		</g>
		<g>
			<path class="st0" d="M353.4,513.5c-2.2,0-4.5-0.4-6.6-1.2l-33.1-12.3c-9.8-3.7-14.8-14.6-11.2-24.4c3.7-9.8,14.6-14.8,24.4-11.2
				l12.3,4.6l34.3-167.5c2.1-10.3,12.1-16.9,22.4-14.8c10.3,2.1,16.9,12.1,14.8,22.4L372,498.3c-1.1,5.4-4.5,10.1-9.4,12.8
				C359.7,512.7,356.5,513.5,353.4,513.5z"/>
		</g>
		<g>
			<g>
				<path class="st0" d="M584.8,395.9c-5.8,0-11.5-2.6-15.3-7.7c-6.3-8.4-4.5-20.3,3.9-26.6c12.7-9.5,14.6-31,11-42.9
					c-6.6-22.1-31.6-35.6-70.3-37.8c-10.5-0.6-18.5-9.6-17.9-20.1c0.6-10.5,9.6-18.5,20.1-17.9c28.9,1.7,52.7,8.6,70.8,20.6
					c16.7,11,28.3,26.3,33.7,44.3c9.2,30.7-1.5,67-24.8,84.3C592.7,394.7,588.7,395.9,584.8,395.9z"/>
			</g>
			<g>
				<path class="st0" d="M226,250.8c-0.3,0-0.6,0-0.9,0c-55.6-2.7-94.6-20.9-115.9-54c-17.4-27.2-17.4-56.3-17.4-70.2
					c0-10.5,8.5-19,19-19c0,0,0,0,0,0c10.5,0,19,8.5,19,19v0c0,11.2,0,31.9,11.4,49.8c14.2,22.2,43.1,34.5,85.7,36.6
					c10.5,0.5,18.6,9.4,18.1,19.9C244.4,242.9,236,250.8,226,250.8z"/>
			</g>
		</g>
	</g>
	<g>
		<g>
			<path class="st0" d="M236.6,314l256.9,18c20,1.4,37.4-13.7,38.8-33.7l14.2-203.1c2.3-32.5-33.5-53.7-61-36.1L388,121.8
				c-5.5,3.6-12.8,3.1-17.7-1.2l-87.7-75.7c-24.7-21.3-63.1-5.3-65.4,27.2l-14.2,203.1C201.5,295.2,216.6,312.6,236.6,314z"/>
		</g>
		<g>
			<g>
				<path d="M483.7,311.7l-234.1-16.5c-15.4-1.1-27.1-14.5-26-29.9l7.3-103.7c1.1-15.4,14.5-27.1,29.9-26l234.1,16.5
					c15.4,1.1,27.1,14.5,26,29.9l-7.3,103.7C512.5,301.2,499.1,312.8,483.7,311.7z"/>
			</g>
		</g>
		<g>
			<path class="st1" d="M317,162.2c-1.2-0.1-2.4-0.1-3.6-0.1l0,0h0c0,0,0,0,0,0c-26.2,0-48.4,20.3-50.3,46.9
				c-2,27.8,19,51.9,46.8,53.9c1.2,0.1,2.4,0.1,3.6,0.1c26.2,0,48.4-20.3,50.3-46.9C365.7,188.2,344.8,164.1,317,162.2z
				 M345.8,214.8c-1.2,16.9-15.4,30.2-32.3,30.2c-0.8,0-1.6,0-2.3-0.1c-17.8-1.3-31.3-16.8-30.1-34.7c1.2-16.9,15.4-30.2,32.3-30.2
				v0l0,0c0.8,0,1.6,0,2.3,0.1C333.5,181.4,347,196.9,345.8,214.8z"/>
			<path class="st1" d="M435.6,170.6c-1.2-0.1-2.4-0.1-3.6-0.1l0,0h0c0,0,0,0,0,0c-26.2,0-48.4,20.3-50.3,46.9
				c-2,27.8,19,51.9,46.8,53.9c1.2,0.1,2.4,0.1,3.6,0.1c26.2,0,48.4-20.3,50.3-46.9C484.3,196.7,463.4,172.5,435.6,170.6z
				 M464.4,223.2c-1.2,16.9-15.4,30.2-32.3,30.2c-0.8,0-1.6,0-2.3-0.1c-8.6-0.6-16.5-4.6-22.2-11.1s-8.5-14.9-7.9-23.6
				c1.2-16.9,15.4-30.2,32.3-30.2v0l0,0c0.8,0,1.6,0,2.3,0.1c8.6,0.6,16.5,4.6,22.2,11.1S465,214.5,464.4,223.2z"/>
		</g>
		<g>
			<g>
				<g>
					<path class="st1" d="M346.1,272.2c6.9,4,14.9,5.7,22.7,6.2c7.9,0.5,15.9-0.7,23.2-3.8c2.2-0.9,2.8-4.3,1.6-6.2
						c-1.4-2.2-3.8-2.6-6.2-1.6c-0.5,0.2-0.4,0.2,0.2-0.1c-0.2,0.1-0.4,0.2-0.6,0.2c-0.4,0.1-0.7,0.3-1.1,0.4
						c-0.8,0.3-1.5,0.5-2.3,0.7c-1.7,0.5-3.4,0.8-5.1,1c0.8-0.1,0.2,0-0.3,0c-0.5,0.1-1,0.1-1.5,0.1c-0.9,0.1-1.7,0.1-2.6,0.2
						c-1.8,0.1-3.5,0-5.3-0.1c-0.9-0.1-1.8-0.1-2.7-0.2c-0.1,0-1.5-0.2-0.9-0.1c0.6,0.1-0.8-0.1-0.9-0.1c-1.7-0.3-3.4-0.6-5.1-1.1
						c-1.6-0.4-3.2-0.9-4.8-1.5c-0.2-0.1-0.4-0.2-0.6-0.3c0.5,0.2,0.6,0.2,0.1,0c-0.3-0.1-0.6-0.3-0.9-0.4c-0.8-0.4-1.6-0.8-2.4-1.2
						c-2-1.2-5-0.5-6.2,1.6C343.4,268.1,343.9,270.9,346.1,272.2L346.1,272.2z"/>
				</g>
			</g>
		</g>
	</g>
</g>
</svg>
