<?xml version="1.0" encoding="utf-8"?>
<!-- Generator: Adobe Illustrator 27.3.1, SVG Export Plug-In . SVG Version: 6.00 Build 0)  -->
<svg version="1.1" id="Layer_1" xmlns="http://www.w3.org/2000/svg" xmlns:xlink="http://www.w3.org/1999/xlink" x="0px" y="0px"
	 viewBox="0 0 1920 1080" style="enable-background:new 0 0 1920 1080;" xml:space="preserve">
<style type="text/css">
	.st0{fill:#7F52FF;}
	.st1{fill:#FFFFFF;}
	.st2{fill:#FE2857;}
</style>
<g>
	<g>
		<g>
			<path class="st0" d="M546.2,526.7c-2.1,0-4-1.4-4.5-3.6c-0.6-2.5,1-5,3.4-5.5c0.3-0.1,16-3.9,24.3-12.6
				c8.1-8.6,8.2-22.2,8.2-22.3c0-2.5,2.1-4.6,4.6-4.6c0,0,0,0,0,0c2.5,0,4.6,2,4.6,4.6c0,0.7,0,17.4-10.8,28.7
				c-10.2,10.7-28.1,15-28.8,15.2C546.9,526.6,546.5,526.7,546.2,526.7z"/>
		</g>
		<g>
			<path class="st0" d="M443.4,566.8c-0.3,0-0.5,0-0.8-0.1c-2.5-0.4-4.2-2.8-3.8-5.3c0.1-0.4,1.9-11,9.6-22.3
				c8.4-12.3,20-20.9,20.5-21.3c2.1-1.5,4.9-1.1,6.4,1c1.5,2.1,1.1,4.9-1,6.4c-0.1,0.1-10.9,8-18.3,19c-6.5,9.6-8.1,18.6-8.1,18.7
				C447.5,565.2,445.6,566.8,443.4,566.8z"/>
		</g>
		<g>
			<path class="st0" d="M476.8,546.2l68.2-4.8c5.3-0.4,9.3-5,9-10.3l-3.8-54c-0.6-8.6-10.8-12.9-17.4-7.2l-23.3,20.4
				c-1.3,1.1-3.2,1.3-4.7,0.3l-25.9-17c-7.3-4.7-16.8,0.9-16.2,9.6l3.8,53.9C466.9,542.6,471.5,546.6,476.8,546.2z"/>
		</g>
		<g>
			<g>
				<path class="st0" d="M490.3,595.5h-8.7c-2.5,0-4.6-2.1-4.6-4.6s2.1-4.6,4.6-4.6h5.1l11.5-45.6c0.6-2.5,3.1-4,5.6-3.3
					c2.5,0.6,4,3.1,3.3,5.6L494.8,592C494.3,594.1,492.4,595.5,490.3,595.5z"/>
			</g>
			<g>
				<path class="st0" d="M535,595.5h-8.7c-2.1,0-4-1.4-4.5-3.5l-12.4-49.1c-0.6-2.5,0.9-5,3.3-5.6c2.5-0.6,5,0.9,5.6,3.3l11.5,45.6
					h5.1c2.5,0,4.6,2.1,4.6,4.6S537.6,595.5,535,595.5z"/>
			</g>
		</g>
		<g>
			<g>
				<g>
					<path d="M543.4,536.7l-65.7,4.6c-3.3,0.2-6.2-2.3-6.5-5.6l-2.1-30.7c-0.2-3.3,2.3-6.2,5.6-6.5l65.7-4.6
						c3.3-0.2,6.2,2.3,6.5,5.6l2.1,30.7C549.3,533.6,546.8,536.5,543.4,536.7z"/>
				</g>
			</g>
			<g>
				<g>
					<path class="st1" d="M493.2,508.4c4.5,0,8.2,3.5,8.5,8c0.2,2.3-0.6,4.5-2.1,6.2s-3.6,2.8-5.9,2.9c-0.2,0-0.4,0-0.6,0
						c-4.5,0-8.2-3.5-8.5-8c-0.2-2.3,0.6-4.5,2.1-6.2c1.5-1.7,3.6-2.8,5.9-2.9C492.8,508.4,493,508.4,493.2,508.4 M493.2,503.5
						c-0.3,0-0.6,0-0.9,0c-7.4,0.5-13,6.9-12.4,14.3c0.5,7.1,6.4,12.5,13.4,12.5c0.3,0,0.6,0,0.9,0c7.4-0.5,13-6.9,12.4-14.3
						C506.1,509,500.2,503.5,493.2,503.5L493.2,503.5z"/>
				</g>
				<g>
					<path class="st1" d="M524.7,506.2c4.5,0,8.2,3.5,8.5,8c0.2,2.3-0.6,4.5-2.1,6.2s-3.6,2.8-5.9,2.9c-0.2,0-0.4,0-0.6,0
						c-4.5,0-8.2-3.5-8.5-8c-0.2-2.3,0.6-4.5,2.1-6.2c1.5-1.7,3.6-2.8,5.9-2.9C524.3,506.2,524.5,506.2,524.7,506.2 M524.7,501.4
						c-0.3,0-0.6,0-0.9,0c-7.4,0.5-13,6.9-12.4,14.3c0.5,7.1,6.4,12.5,13.4,12.5c0.3,0,0.6,0,0.9,0c7.4-0.5,13-6.9,12.4-14.3
						C537.6,506.8,531.7,501.4,524.7,501.4L524.7,501.4z"/>
				</g>
			</g>
			<g>
				<g>
					<g>
						<path class="st1" d="M504.2,531.3c1.9,0.7,4,0.9,5.9,0.7c2-0.2,4-0.7,5.8-1.7c1.1-0.7,0.1-2.4-1-1.7
							c-2.9,1.8-7.1,2.1-10.2,0.8c-0.5-0.2-1.1,0.2-1.2,0.7C503.3,530.6,503.7,531.1,504.2,531.3L504.2,531.3z"/>
					</g>
				</g>
			</g>
		</g>
	</g>
</g>
<g>
	<g>
		<g>
			<path class="st0" d="M972.8,579.1c-0.7,0-1.4-0.5-1.6-1.3c-0.2-0.9,0.3-1.8,1.2-2c0.1,0,5.8-1.4,8.8-4.6c3-3.1,3-8.1,3-8.1
				c0-0.9,0.7-1.6,1.6-1.7c0,0,0,0,0,0c0.9,0,1.6,0.7,1.7,1.6c0,0.3,0,6.3-3.9,10.4c-3.7,3.9-10.2,5.5-10.5,5.5
				C973,579.1,972.9,579.1,972.8,579.1z"/>
		</g>
		<g>
			<path class="st0" d="M935.4,593.7c-0.1,0-0.2,0-0.3,0c-0.9-0.2-1.5-1-1.3-1.9c0-0.2,0.7-4,3.5-8.1c3-4.5,7.3-7.6,7.5-7.7
				c0.7-0.5,1.8-0.4,2.3,0.4s0.4,1.8-0.4,2.3c0,0-4,2.9-6.7,6.9c-2.4,3.5-3,6.8-3,6.8C936.9,593.1,936.2,593.7,935.4,593.7z"/>
		</g>
		<g>
			<path class="st0" d="M947.5,586.2l24.8-1.7c1.9-0.1,3.4-1.8,3.3-3.7l-1.4-19.6c-0.2-3.1-3.9-4.7-6.3-2.6l-8.5,7.4
				c-0.5,0.4-1.2,0.5-1.7,0.1l-9.4-6.2c-2.7-1.7-6.1,0.3-5.9,3.5l1.4,19.6C943.9,584.9,945.6,586.4,947.5,586.2z"/>
		</g>
		<g>
			<g>
				<path class="st0" d="M952.5,604.1h-3.2c-0.9,0-1.7-0.7-1.7-1.7s0.7-1.7,1.7-1.7h1.9l4.2-16.6c0.2-0.9,1.1-1.4,2-1.2
					c0.9,0.2,1.4,1.1,1.2,2l-4.5,17.9C953.9,603.6,953.2,604.1,952.5,604.1z"/>
			</g>
			<g>
				<path class="st0" d="M968.7,604.1h-3.2c-0.8,0-1.4-0.5-1.6-1.2l-4.5-17.9c-0.2-0.9,0.3-1.8,1.2-2c0.9-0.2,1.8,0.3,2,1.2
					l4.2,16.6h1.9c0.9,0,1.7,0.7,1.7,1.7S969.7,604.1,968.7,604.1z"/>
			</g>
		</g>
		<g>
			<g>
				<g>
					<path d="M971.5,582.3l-23.5,1.6c-1.1,0.1-2.1-0.8-2.2-1.9l-0.8-11c-0.1-1.1,0.8-2.1,1.9-2.2l23.5-1.6c1.1-0.1,2.1,0.8,2.2,1.9
						l0.8,11C973.5,581.2,972.7,582.2,971.5,582.3z"/>
				</g>
			</g>
			<g>
				<g>
					<path class="st1" d="M953.3,572.1c1.7,0,3.2,1.3,3.3,3.1c0.1,1.8-1.2,3.4-3,3.5c-0.1,0-0.2,0-0.2,0c-1.7,0-3.2-1.3-3.3-3.1
						c-0.1-1.8,1.2-3.4,3-3.5C953.1,572.1,953.2,572.1,953.3,572.1 M953.3,570.3c-0.1,0-0.2,0-0.4,0c-2.8,0.2-5,2.6-4.8,5.5
						c0.2,2.7,2.4,4.8,5.1,4.8c0.1,0,0.2,0,0.4,0c2.8-0.2,5-2.6,4.8-5.5C958.2,572.3,955.9,570.3,953.3,570.3L953.3,570.3z"/>
				</g>
				<g>
					<path class="st1" d="M965.3,571.3c1.7,0,3.2,1.3,3.3,3.1c0.1,0.9-0.2,1.7-0.8,2.4c-0.6,0.7-1.4,1.1-2.2,1.1c-0.1,0-0.2,0-0.2,0
						c-1.7,0-3.2-1.3-3.3-3.1c-0.1-1.8,1.2-3.4,3-3.5C965.2,571.3,965.3,571.3,965.3,571.3 M965.3,569.4c-0.1,0-0.2,0-0.4,0
						c-2.8,0.2-5,2.6-4.8,5.5c0.2,2.7,2.4,4.8,5.1,4.8c0.1,0,0.2,0,0.4,0c2.8-0.2,5-2.6,4.8-5.5C970.3,571.5,968,569.4,965.3,569.4
						L965.3,569.4z"/>
				</g>
			</g>
			<g>
				<g>
					<g>
						<path class="st1" d="M958.7,581.4c0.9,0,1.8-0.4,2.4-1.1c0.1-0.1,0.1-0.4,0-0.5c-0.1-0.1-0.4-0.1-0.5,0
							c-0.1,0.1-0.1,0.1-0.2,0.2c0,0,0,0-0.1,0c0,0-0.1,0,0,0c0,0,0,0,0,0c0,0,0,0-0.1,0c-0.1,0.1-0.2,0.1-0.3,0.2
							c0,0-0.1,0-0.1,0.1c0,0,0,0-0.1,0c0,0-0.1,0-0.1,0c0,0,0,0,0,0c0,0,0,0-0.1,0c0,0-0.1,0-0.1,0c-0.1,0-0.2,0.1-0.3,0.1
							c0,0-0.1,0-0.1,0c0,0,0,0-0.1,0c0,0,0,0,0,0c-0.1,0-0.2,0-0.3,0c-0.2,0-0.4,0.2-0.4,0.4C958.4,581.2,958.5,581.4,958.7,581.4
							L958.7,581.4z"/>
					</g>
				</g>
			</g>
		</g>
	</g>
</g>
<g>
	<g>
		<path class="st0" d="M1378.7,605.7l16.4,0c1.3,0,2.3-1,2.3-2.3l0-12.9c0-2.1-2.4-3.3-4-2l-5.9,3.2c-0.3,0.2-0.8,0.2-1.1,0
			l-5.9-3.3c-1.7-1.2-4-0.1-4,2l0,12.9C1376.3,604.7,1377.4,605.7,1378.7,605.7z"/>
		<g>
			<g>
				<path d="M1393.6,604l-13.5,0c-1.1,0-2.1-0.9-2.1-2.1l0-5.8c0-1.1,0.9-2.1,2.1-2.1l13.5,0c1.1,0,2.1,0.9,2.1,2.1l0,5.8
					C1395.7,603.1,1394.7,604,1393.6,604z"/>
			</g>
			<g>
				<g>
					<path class="st1" d="M1382.7,594.9l0,1.3c0.6,0,1.2,0.2,1.6,0.7c0.4,0.4,0.7,1,0.7,1.6c0,1.3-1,2.3-2.3,2.3
						c-1.3,0-2.3-1-2.3-2.3c0-1.3,1-2.3,2.3-2.3L1382.7,594.9 M1382.7,594.9c-2,0-3.5,1.6-3.6,3.5c0,2,1.6,3.6,3.5,3.6c0,0,0,0,0,0
						c2,0,3.5-1.6,3.6-3.5C1386.2,596.5,1384.6,594.9,1382.7,594.9C1382.7,594.9,1382.7,594.9,1382.7,594.9L1382.7,594.9z"/>
				</g>
				<g>
					<path class="st1" d="M1391,594.9l0,1.3c1.3,0,2.3,1,2.3,2.3c0,1.3-1,2.3-2.3,2.3c-1.3,0-2.3-1-2.3-2.3c0-1.3,1-2.3,2.3-2.3
						L1391,594.9 M1391,594.9c-2,0-3.5,1.6-3.6,3.5c0,2,1.6,3.6,3.5,3.6c0,0,0,0,0,0c2,0,3.5-1.6,3.6-3.5
						C1394.6,596.5,1393,594.9,1391,594.9C1391.1,594.9,1391,594.9,1391,594.9L1391,594.9z"/>
				</g>
			</g>
		</g>
	</g>
</g>
<g>
	<g>
		<path d="M377.1,654.9h-6.2v-2h3.5c0.7,0,1.3-0.1,1.8-0.4s0.9-0.7,1.2-1.2c0.3-0.5,0.4-1.1,0.4-1.9l0-0.6h1.7v25.9h-2.5V654.9z"/>
		<path d="M392.2,674.1c-1.3-0.6-2.4-1.4-3.2-2.4c-0.8-1-1.3-2.2-1.5-3.5h2.5c0.2,0.9,0.6,1.7,1.2,2.4c0.6,0.7,1.4,1.2,2.3,1.6
			c0.9,0.4,1.9,0.6,3,0.6c1.3,0,2.4-0.3,3.4-0.8c1-0.6,1.7-1.4,2.3-2.4c0.5-1,0.8-2.2,0.8-3.5c0-1.3-0.3-2.5-0.8-3.5
			c-0.5-1-1.3-1.8-2.3-2.4c-1-0.6-2.1-0.8-3.4-0.8c-0.9,0-1.7,0.2-2.5,0.5c-0.8,0.3-1.4,0.7-2,1.2c-0.6,0.5-1,1-1.3,1.6h-2.3l1.1-14
			h14.6v2.3h-12.5l-0.8,9.2c0.4-0.6,0.9-1.1,1.5-1.5c0.6-0.5,1.4-0.8,2.2-1.1c0.8-0.3,1.6-0.4,2.4-0.4c1.7,0,3.1,0.4,4.4,1.1
			c1.3,0.8,2.3,1.8,3.1,3.1s1.1,2.8,1.1,4.6c0,1.8-0.4,3.3-1.1,4.7c-0.8,1.4-1.8,2.4-3.2,3.2c-1.4,0.8-2.9,1.1-4.7,1.1
			C395,675,393.5,674.7,392.2,674.1z"/>
		<path d="M415.1,673.4c-1.5-1-2.6-2.5-3.4-4.4c-0.8-1.9-1.2-4.1-1.2-6.7c0-2.9,0.4-5.4,1.2-7.5c0.8-2.1,2-3.8,3.5-4.9
			c1.5-1.1,3.2-1.7,5.2-1.7c1.2,0,2.4,0.2,3.5,0.6c1.1,0.4,2.1,1,3,1.8c0.9,0.8,1.5,1.9,2,3.1h-2.5c-0.3-0.6-0.7-1.2-1.3-1.7
			c-0.6-0.5-1.3-0.9-2-1.2c-0.8-0.3-1.6-0.4-2.5-0.4c-1.5,0-2.8,0.4-3.9,1.3c-1.1,0.9-2,2.2-2.7,4c-0.7,1.8-1,4.1-1,6.8
			c0.4-1,0.9-2,1.7-2.8c0.8-0.8,1.7-1.4,2.8-1.8c1.1-0.4,2.3-0.7,3.5-0.7c1.6,0,3.1,0.4,4.4,1.1c1.3,0.8,2.4,1.8,3.1,3.2
			c0.8,1.3,1.1,2.8,1.1,4.5c0,1.7-0.4,3.2-1.2,4.5c-0.8,1.3-1.9,2.4-3.3,3.2c-1.4,0.8-3,1.1-4.7,1.1
			C418.4,675,416.6,674.5,415.1,673.4z M423.9,671.9c1-0.6,1.8-1.4,2.3-2.4s0.9-2.1,0.9-3.4c0-1.2-0.3-2.4-0.9-3.4
			c-0.6-1-1.4-1.8-2.4-2.4s-2.2-0.9-3.4-0.9c-1.3,0-2.4,0.3-3.4,0.9s-1.8,1.4-2.4,2.4c-0.6,1-0.9,2.1-0.9,3.4c0,1.3,0.3,2.4,0.9,3.4
			c0.6,1,1.4,1.8,2.4,2.4s2.2,0.9,3.5,0.9C421.8,672.8,422.9,672.5,423.9,671.9z"/>
		<path d="M437.9,655.6v4.5h0.1v20.4h-2.4v-24.9H437.9z M440.9,673.9c-1.3-0.8-2.2-1.8-2.9-3.1c-0.7-1.3-1.1-2.9-1.1-4.6l1,0.5v-3
			l-1,0.4c0-1.7,0.4-3.3,1.1-4.6c0.7-1.3,1.7-2.4,2.9-3.1c1.3-0.8,2.7-1.1,4.3-1.1c1.7,0,3.3,0.4,4.7,1.3c1.4,0.8,2.4,2,3.2,3.5
			s1.1,3.2,1.1,5.1c0,1.9-0.4,3.6-1.1,5.1s-1.8,2.7-3.2,3.5c-1.4,0.8-2.9,1.3-4.7,1.3C443.6,675,442.1,674.6,440.9,673.9z
			 M448.4,671.9c1-0.7,1.9-1.6,2.4-2.7c0.6-1.2,0.9-2.5,0.9-4s-0.3-2.8-0.9-4c-0.6-1.2-1.4-2.1-2.4-2.7c-1-0.7-2.2-1-3.5-1
			c-1.3,0-2.5,0.3-3.6,1s-1.9,1.6-2.4,2.7s-0.9,2.5-0.9,4s0.3,2.8,0.9,4s1.4,2.1,2.4,2.7c1,0.7,2.2,1,3.6,1
			C446.2,672.9,447.3,672.5,448.4,671.9z"/>
		<path d="M464.4,664.1l0.4-0.5l5.6-8h2.7l-6.9,9.7l-0.6,0.8l-5.9,8.4h-2.7L464.4,664.1z M464.5,665.9l-0.3-0.6l-6.9-9.7h2.8
			l5.7,8.1l0.3,0.5l7.4,10.4h-2.8L464.5,665.9z"/>
		<path d="M497.2,656c1.1,0.5,1.9,1.3,2.5,2.3c0.6,1,0.9,2.1,0.9,3.5v12.8h-2.3v-7.2h0.7c0,1.6-0.3,2.9-0.9,4.1
			c-0.6,1.1-1.4,2-2.5,2.6c-1.1,0.6-2.3,0.9-3.7,0.9c-1.2,0-2.3-0.2-3.3-0.7s-1.7-1.1-2.3-1.9c-0.5-0.8-0.8-1.7-0.8-2.8
			c0-1,0.2-1.8,0.7-2.7c0.5-0.8,1.2-1.5,2-2c0.9-0.5,1.9-0.8,3-1l5.5-0.6c0.4,0,0.8-0.2,1-0.5c0.3-0.3,0.4-0.7,0.4-1.3l0.2,3.5
			l-6.8,0.7c-0.7,0.1-1.3,0.3-1.9,0.6c-0.5,0.3-1,0.8-1.3,1.3s-0.5,1.1-0.5,1.8c0,0.7,0.2,1.3,0.6,1.9c0.4,0.5,0.9,1,1.6,1.3
			c0.7,0.3,1.4,0.5,2.3,0.5c1.1,0,2.2-0.2,3-0.7c0.9-0.5,1.6-1.2,2-2c0.5-0.9,0.7-1.9,0.7-3v-5.9c0-0.8-0.2-1.6-0.6-2.2
			c-0.4-0.6-0.9-1.2-1.7-1.5c-0.7-0.4-1.5-0.5-2.4-0.5c-0.9,0-1.7,0.2-2.5,0.5c-0.7,0.3-1.3,0.8-1.8,1.3c-0.5,0.6-0.7,1.2-0.8,1.8
			h-2.4c0.1-1.1,0.6-2,1.2-2.9c0.7-0.9,1.6-1.5,2.6-2s2.3-0.7,3.6-0.7C494.9,655.2,496.1,655.4,497.2,656z"/>
		<path d="M506.9,655.6h2.3l0,7.5l-1,0.7c0-1.8,0.3-3.3,0.9-4.6c0.6-1.3,1.5-2.3,2.6-3s2.4-1.1,3.9-1.1c1.4,0,2.6,0.3,3.6,0.9
			s1.9,1.5,2.5,2.6c0.6,1.1,0.9,2.5,0.9,4v11.9h-2.4v-11.7c0-1.2-0.2-2.2-0.6-3c-0.4-0.9-1-1.5-1.8-1.9c-0.8-0.4-1.7-0.7-2.7-0.7
			c-1.1,0-2.1,0.3-3,0.8c-0.9,0.5-1.5,1.2-2,2.2s-0.7,2-0.7,3.2v11.1h-2.4V655.6z"/>
		<path d="M531.7,673.8c-1.4-0.8-2.4-2-3.2-3.5s-1.1-3.2-1.1-5.1c0-1.9,0.4-3.6,1.1-5.1s1.8-2.7,3.2-3.5c1.4-0.8,2.9-1.3,4.7-1.3
			c1.6,0,3,0.4,4.3,1.1c1.3,0.8,2.2,1.8,2.9,3.1c0.7,1.3,1.1,2.9,1.1,4.6l-1-0.4v3l1-0.5c0,1.7-0.4,3.3-1.1,4.6
			c-0.7,1.3-1.7,2.4-2.9,3.1c-1.3,0.8-2.7,1.1-4.3,1.1C534.6,675,533.1,674.6,531.7,673.8z M540.3,671.9c1-0.7,1.9-1.6,2.4-2.7
			s0.9-2.5,0.9-4s-0.3-2.8-0.9-4s-1.4-2.1-2.4-2.7c-1-0.7-2.2-1-3.6-1c-1.3,0-2.5,0.3-3.6,1c-1,0.7-1.9,1.6-2.4,2.7
			c-0.6,1.2-0.9,2.5-0.9,4s0.3,2.8,0.9,4c0.6,1.2,1.4,2.1,2.4,2.7c1,0.7,2.2,1,3.6,1C538,672.9,539.2,672.5,540.3,671.9z
			 M543.5,648.7h2.4v25.9h-2.4V648.7z"/>
		<path d="M561.7,655.6h2.3v8.2h-0.9c0-1.8,0.3-3.3,0.9-4.6c0.6-1.3,1.4-2.3,2.4-3c1-0.7,2.3-1,3.7-1c1.3,0,2.5,0.3,3.4,0.9
			s1.8,1.5,2.3,2.6c0.5,1.1,0.8,2.4,0.8,3.9v11.9h-2.4v-11.8c0-1.1-0.2-2.1-0.6-3c-0.4-0.8-0.9-1.5-1.6-1.9
			c-0.7-0.4-1.6-0.7-2.6-0.7c-1.1,0-2,0.3-2.8,0.8c-0.8,0.5-1.5,1.2-1.9,2.2c-0.4,0.9-0.7,2-0.7,3.3v11.1h-2.4V655.6z M586.2,659.8
			c-0.4-0.8-0.9-1.5-1.6-1.9c-0.7-0.4-1.6-0.7-2.6-0.7c-1.1,0-2,0.3-2.8,0.8s-1.4,1.2-1.9,2.2s-0.7,2-0.7,3.3l-1.4,0.4
			c0-1.7,0.3-3.2,0.9-4.5c0.6-1.3,1.4-2.3,2.5-3c1.1-0.7,2.4-1.1,3.8-1.1c1.3,0,2.5,0.3,3.5,0.9s1.8,1.5,2.3,2.6
			c0.6,1.1,0.8,2.4,0.8,3.9v11.9h-2.4v-11.8C586.8,661.6,586.6,660.6,586.2,659.8z"/>
		<path d="M598.6,673.7c-1.5-0.9-2.6-2-3.4-3.6c-0.8-1.5-1.2-3.2-1.2-5.1s0.4-3.6,1.2-5.1c0.8-1.5,2-2.7,3.4-3.6
			c1.5-0.9,3.1-1.3,4.9-1.3s3.4,0.4,4.8,1.3s2.6,2,3.4,3.5c0.8,1.5,1.3,3.2,1.3,5.1s-0.4,3.6-1.3,5.1c-0.8,1.5-2,2.7-3.4,3.5
			c-1.4,0.9-3.1,1.3-4.9,1.3C601.6,675,600,674.6,598.6,673.7z M607,671.9c1.1-0.7,1.9-1.6,2.5-2.7c0.6-1.2,0.9-2.5,0.9-4
			s-0.3-2.8-0.9-4s-1.5-2.1-2.5-2.8c-1.1-0.7-2.3-1-3.6-1s-2.5,0.3-3.6,1c-1.1,0.7-1.9,1.6-2.5,2.8s-0.9,2.5-0.9,4s0.3,2.8,0.9,4
			c0.6,1.2,1.5,2.1,2.5,2.7c1.1,0.7,2.3,1,3.6,1C604.8,672.9,606,672.5,607,671.9z"/>
		<path d="M618.3,655.6h2.4v6.8l-1.1,1.4c0-1.7,0.3-3.2,0.9-4.4c0.6-1.3,1.4-2.2,2.4-2.9c1-0.7,2.2-1,3.5-1h0.7v2.5h-0.9
			c-1.1,0-2.1,0.2-3,0.7c-0.9,0.5-1.5,1.2-2,2.1s-0.7,2-0.7,3.2v10.7h-2.4V655.6z"/>
		<path d="M634.2,673.7c-1.4-0.9-2.5-2-3.3-3.6c-0.8-1.5-1.2-3.2-1.2-5.1c0-1.9,0.4-3.5,1.2-5.1c0.8-1.5,1.9-2.7,3.3-3.6
			c1.4-0.9,3-1.3,4.7-1.3c1.8,0,3.3,0.4,4.6,1.3c1.3,0.9,2.4,2,3.1,3.5c0.7,1.5,1.1,3.2,1.1,5.1v0.6H632l0-0.6
			c0,1.5,0.3,2.9,0.9,4.1s1.4,2.1,2.5,2.8c1.1,0.7,2.3,1,3.6,1c0.9,0,1.7-0.1,2.5-0.4c0.8-0.3,1.5-0.6,2-1.1c0.6-0.5,1-1,1.3-1.6
			h2.4c-0.2,0.8-0.7,1.7-1.5,2.5c-0.7,0.8-1.7,1.5-2.9,2c-1.2,0.5-2.6,0.8-4.1,0.8C637.2,675,635.6,674.6,634.2,673.7z M632,663.7
			h13.3v1.4c0-1.5-0.3-2.9-0.8-4.1c-0.5-1.2-1.3-2.1-2.2-2.7c-1-0.7-2.1-1-3.4-1c-1.3,0-2.5,0.3-3.6,1c-1,0.6-1.9,1.5-2.4,2.7
			c-0.6,1.2-0.9,2.5-0.9,4L632,663.7z"/>
	</g>
</g>
<g>
	<g>
		<path d="M859.6,654.9h-6.2v-2h3.5c0.7,0,1.3-0.1,1.8-0.4c0.5-0.3,0.9-0.7,1.2-1.2c0.3-0.5,0.4-1.1,0.4-1.9l0-0.6h1.7v25.9h-2.5
			V654.9z"/>
		<path d="M874.7,674.1c-1.3-0.6-2.4-1.4-3.2-2.4c-0.8-1-1.3-2.2-1.5-3.5h2.5c0.2,0.9,0.6,1.7,1.2,2.4s1.4,1.2,2.3,1.6
			c0.9,0.4,1.9,0.6,3,0.6c1.3,0,2.4-0.3,3.4-0.8c1-0.6,1.7-1.4,2.3-2.4c0.5-1,0.8-2.2,0.8-3.5c0-1.3-0.3-2.5-0.8-3.5
			c-0.5-1-1.3-1.8-2.3-2.4c-1-0.6-2.1-0.8-3.4-0.8c-0.9,0-1.7,0.2-2.5,0.5c-0.8,0.3-1.4,0.7-2,1.2c-0.6,0.5-1,1-1.3,1.6h-2.3l1.1-14
			h14.6v2.3h-12.5l-0.8,9.2c0.4-0.6,0.9-1.1,1.5-1.5s1.4-0.8,2.2-1.1c0.8-0.3,1.6-0.4,2.4-0.4c1.7,0,3.1,0.4,4.4,1.1
			c1.3,0.8,2.3,1.8,3.1,3.1c0.7,1.3,1.1,2.8,1.1,4.6c0,1.8-0.4,3.3-1.1,4.7c-0.8,1.4-1.8,2.4-3.2,3.2c-1.4,0.8-2.9,1.1-4.7,1.1
			C877.5,675,876,674.7,874.7,674.1z"/>
		<path d="M897.6,673.4c-1.5-1-2.6-2.5-3.4-4.4c-0.8-1.9-1.2-4.1-1.2-6.7c0-2.9,0.4-5.4,1.2-7.5c0.8-2.1,2-3.8,3.5-4.9
			c1.5-1.1,3.2-1.7,5.2-1.7c1.2,0,2.4,0.2,3.5,0.6c1.1,0.4,2.1,1,3,1.8s1.5,1.9,2,3.1h-2.5c-0.3-0.6-0.7-1.2-1.3-1.7
			c-0.6-0.5-1.3-0.9-2-1.2c-0.8-0.3-1.6-0.4-2.5-0.4c-1.5,0-2.8,0.4-3.9,1.3c-1.1,0.9-2,2.2-2.7,4c-0.7,1.8-1,4.1-1,6.8
			c0.4-1,0.9-2,1.7-2.8c0.8-0.8,1.7-1.4,2.8-1.8c1.1-0.4,2.3-0.7,3.5-0.7c1.6,0,3.1,0.4,4.4,1.1c1.3,0.8,2.4,1.8,3.1,3.2
			c0.8,1.3,1.1,2.8,1.1,4.5c0,1.7-0.4,3.2-1.2,4.5c-0.8,1.3-1.9,2.4-3.3,3.2c-1.4,0.8-3,1.1-4.7,1.1
			C900.8,675,899.1,674.5,897.6,673.4z M906.3,671.9c1-0.6,1.8-1.4,2.3-2.4s0.9-2.1,0.9-3.4c0-1.2-0.3-2.4-0.9-3.4
			c-0.6-1-1.4-1.8-2.4-2.4s-2.2-0.9-3.4-0.9s-2.4,0.3-3.4,0.9c-1,0.6-1.8,1.4-2.4,2.4s-0.9,2.1-0.9,3.4c0,1.3,0.3,2.4,0.9,3.4
			s1.4,1.8,2.4,2.4c1,0.6,2.2,0.9,3.5,0.9C904.2,672.8,905.3,672.5,906.3,671.9z"/>
		<path d="M920.4,655.6v4.5h0.1v20.4H918v-24.9H920.4z M923.3,673.9c-1.3-0.8-2.2-1.8-2.9-3.1c-0.7-1.3-1.1-2.9-1.1-4.6l1,0.5v-3
			l-1,0.4c0-1.7,0.4-3.3,1.1-4.6c0.7-1.3,1.7-2.4,2.9-3.1c1.3-0.8,2.7-1.1,4.3-1.1c1.7,0,3.3,0.4,4.7,1.3c1.4,0.8,2.4,2,3.2,3.5
			s1.1,3.2,1.1,5.1c0,1.9-0.4,3.6-1.1,5.1s-1.8,2.7-3.2,3.5c-1.4,0.8-2.9,1.3-4.7,1.3C926,675,924.6,674.6,923.3,673.9z
			 M930.8,671.9c1-0.7,1.9-1.6,2.4-2.7s0.9-2.5,0.9-4s-0.3-2.8-0.9-4s-1.4-2.1-2.4-2.7c-1-0.7-2.2-1-3.5-1c-1.3,0-2.5,0.3-3.6,1
			c-1,0.7-1.9,1.6-2.4,2.7c-0.6,1.2-0.9,2.5-0.9,4s0.3,2.8,0.9,4c0.6,1.2,1.4,2.1,2.4,2.7c1,0.7,2.2,1,3.6,1
			C928.6,672.9,929.8,672.5,930.8,671.9z"/>
		<path d="M946.8,664.1l0.4-0.5l5.6-8h2.7l-6.9,9.7l-0.6,0.8l-5.9,8.4h-2.7L946.8,664.1z M947,665.9l-0.3-0.6l-6.9-9.7h2.8l5.7,8.1
			l0.3,0.5l7.4,10.4h-2.8L947,665.9z"/>
		<path d="M997.1,662.9v2.1h-27.6v-2.1H997.1z"/>
		<path d="M1017.3,674.1c-1.3-0.6-2.4-1.4-3.2-2.4c-0.8-1-1.3-2.2-1.5-3.5h2.5c0.2,0.9,0.6,1.7,1.2,2.4c0.6,0.7,1.4,1.2,2.3,1.6
			c0.9,0.4,1.9,0.6,3,0.6c1.3,0,2.4-0.3,3.4-0.8s1.7-1.4,2.3-2.4s0.8-2.2,0.8-3.5c0-1.3-0.3-2.5-0.8-3.5c-0.5-1-1.3-1.8-2.3-2.4
			c-1-0.6-2.1-0.8-3.4-0.8c-0.9,0-1.7,0.2-2.5,0.5c-0.8,0.3-1.4,0.7-2,1.2c-0.6,0.5-1,1-1.3,1.6h-2.3l1.1-14h14.6v2.3h-12.5
			l-0.8,9.2c0.4-0.6,0.9-1.1,1.5-1.5c0.6-0.5,1.4-0.8,2.2-1.1c0.8-0.3,1.6-0.4,2.4-0.4c1.7,0,3.1,0.4,4.4,1.1
			c1.3,0.8,2.3,1.8,3.1,3.1c0.7,1.3,1.1,2.8,1.1,4.6c0,1.8-0.4,3.3-1.1,4.7c-0.8,1.4-1.8,2.4-3.2,3.2c-1.4,0.8-2.9,1.1-4.7,1.1
			C1020,675,1018.6,674.7,1017.3,674.1z"/>
		<path d="M1040.1,673.4c-1.5-1-2.6-2.5-3.4-4.4c-0.8-1.9-1.2-4.1-1.2-6.7c0-2.9,0.4-5.4,1.2-7.5c0.8-2.1,2-3.8,3.5-4.9
			c1.5-1.1,3.2-1.7,5.2-1.7c1.2,0,2.4,0.2,3.5,0.6c1.1,0.4,2.1,1,3,1.8c0.9,0.8,1.5,1.9,2,3.1h-2.5c-0.3-0.6-0.7-1.2-1.3-1.7
			c-0.6-0.5-1.3-0.9-2-1.2c-0.8-0.3-1.6-0.4-2.5-0.4c-1.5,0-2.8,0.4-3.9,1.3c-1.1,0.9-2,2.2-2.7,4c-0.7,1.8-1,4.1-1,6.8
			c0.4-1,0.9-2,1.7-2.8s1.7-1.4,2.8-1.8s2.3-0.7,3.5-0.7c1.6,0,3.1,0.4,4.4,1.1s2.4,1.8,3.1,3.2c0.8,1.3,1.1,2.8,1.1,4.5
			c0,1.7-0.4,3.2-1.2,4.5c-0.8,1.3-1.9,2.4-3.3,3.2c-1.4,0.8-3,1.1-4.7,1.1C1043.4,675,1041.6,674.5,1040.1,673.4z M1048.9,671.9
			c1-0.6,1.8-1.4,2.3-2.4s0.9-2.1,0.9-3.4c0-1.2-0.3-2.4-0.9-3.4s-1.4-1.8-2.4-2.4s-2.2-0.9-3.4-0.9c-1.3,0-2.4,0.3-3.4,0.9
			c-1,0.6-1.8,1.4-2.4,2.4c-0.6,1-0.9,2.1-0.9,3.4c0,1.3,0.3,2.4,0.9,3.4c0.6,1,1.4,1.8,2.4,2.4c1,0.6,2.2,0.9,3.5,0.9
			C1046.8,672.8,1047.9,672.5,1048.9,671.9z"/>
		<path d="M1062.9,655.6v4.5h0.1v20.4h-2.4v-24.9H1062.9z M1065.9,673.9c-1.3-0.8-2.2-1.8-2.9-3.1c-0.7-1.3-1.1-2.9-1.1-4.6l1,0.5
			v-3l-1,0.4c0-1.7,0.4-3.3,1.1-4.6c0.7-1.3,1.7-2.4,2.9-3.1c1.3-0.8,2.7-1.1,4.3-1.1c1.7,0,3.3,0.4,4.7,1.3c1.4,0.8,2.4,2,3.2,3.5
			s1.1,3.2,1.1,5.1c0,1.9-0.4,3.6-1.1,5.1s-1.8,2.7-3.2,3.5c-1.4,0.8-2.9,1.3-4.7,1.3C1068.6,675,1067.2,674.6,1065.9,673.9z
			 M1073.4,671.9c1-0.7,1.9-1.6,2.4-2.7c0.6-1.2,0.9-2.5,0.9-4s-0.3-2.8-0.9-4c-0.6-1.2-1.4-2.1-2.4-2.7s-2.2-1-3.5-1
			c-1.3,0-2.5,0.3-3.6,1c-1,0.7-1.9,1.6-2.4,2.7c-0.6,1.2-0.9,2.5-0.9,4s0.3,2.8,0.9,4c0.6,1.2,1.4,2.1,2.4,2.7c1,0.7,2.2,1,3.6,1
			C1071.2,672.9,1072.4,672.5,1073.4,671.9z"/>
		<path d="M1089.4,664.1l0.4-0.5l5.6-8h2.7l-6.9,9.7l-0.6,0.8l-5.9,8.4h-2.7L1089.4,664.1z M1089.5,665.9l-0.3-0.6l-6.9-9.7h2.8
			l5.7,8.1l0.3,0.5l7.4,10.4h-2.8L1089.5,665.9z"/>
	</g>
</g>
<g>
	<g>
		<path d="M1290.4,674.1c-1.3-0.6-2.4-1.4-3.2-2.4c-0.8-1-1.3-2.2-1.5-3.5h2.5c0.2,0.9,0.6,1.7,1.2,2.4c0.6,0.7,1.4,1.2,2.3,1.6
			c0.9,0.4,1.9,0.6,3,0.6c1.3,0,2.4-0.3,3.4-0.8c1-0.6,1.7-1.4,2.3-2.4c0.5-1,0.8-2.2,0.8-3.5c0-1.3-0.3-2.5-0.8-3.5
			c-0.5-1-1.3-1.8-2.3-2.4c-1-0.6-2.1-0.8-3.4-0.8c-0.9,0-1.7,0.2-2.5,0.5c-0.8,0.3-1.4,0.7-2,1.2c-0.6,0.5-1,1-1.3,1.6h-2.3l1.1-14
			h14.6v2.3h-12.5l-0.8,9.2c0.4-0.6,0.9-1.1,1.5-1.5c0.6-0.5,1.4-0.8,2.2-1.1c0.8-0.3,1.6-0.4,2.4-0.4c1.7,0,3.1,0.4,4.4,1.1
			c1.3,0.8,2.3,1.8,3.1,3.1c0.7,1.3,1.1,2.8,1.1,4.6c0,1.8-0.4,3.3-1.1,4.7c-0.8,1.4-1.8,2.4-3.2,3.2c-1.4,0.8-2.9,1.1-4.7,1.1
			C1293.1,675,1291.7,674.7,1290.4,674.1z"/>
		<path d="M1313.2,673.4c-1.5-1-2.6-2.5-3.4-4.4c-0.8-1.9-1.2-4.1-1.2-6.7c0-2.9,0.4-5.4,1.2-7.5c0.8-2.1,2-3.8,3.5-4.9
			c1.5-1.1,3.2-1.7,5.2-1.7c1.2,0,2.4,0.2,3.5,0.6c1.1,0.4,2.1,1,3,1.8s1.5,1.9,2,3.1h-2.5c-0.3-0.6-0.7-1.2-1.3-1.7
			c-0.6-0.5-1.3-0.9-2-1.2c-0.8-0.3-1.6-0.4-2.5-0.4c-1.5,0-2.8,0.4-3.9,1.3c-1.1,0.9-2,2.2-2.7,4c-0.7,1.8-1,4.1-1,6.8
			c0.4-1,0.9-2,1.7-2.8c0.8-0.8,1.7-1.4,2.8-1.8c1.1-0.4,2.3-0.7,3.5-0.7c1.6,0,3.1,0.4,4.4,1.1c1.3,0.8,2.4,1.8,3.1,3.2
			c0.8,1.3,1.1,2.8,1.1,4.5c0,1.7-0.4,3.2-1.2,4.5c-0.8,1.3-1.9,2.4-3.3,3.2c-1.4,0.8-3,1.1-4.7,1.1
			C1316.5,675,1314.7,674.5,1313.2,673.4z M1322,671.9c1-0.6,1.8-1.4,2.3-2.4c0.6-1,0.9-2.1,0.9-3.4c0-1.2-0.3-2.4-0.9-3.4
			c-0.6-1-1.4-1.8-2.4-2.4s-2.2-0.9-3.4-0.9s-2.4,0.3-3.4,0.9c-1,0.6-1.8,1.4-2.4,2.4c-0.6,1-0.9,2.1-0.9,3.4c0,1.3,0.3,2.4,0.9,3.4
			c0.6,1,1.4,1.8,2.4,2.4s2.2,0.9,3.5,0.9C1319.9,672.8,1321,672.5,1322,671.9z"/>
		<path d="M1336,655.6v4.5h0.1v20.4h-2.4v-24.9H1336z M1339,673.9c-1.3-0.8-2.2-1.8-2.9-3.1c-0.7-1.3-1.1-2.9-1.1-4.6l1,0.5v-3
			l-1,0.4c0-1.7,0.4-3.3,1.1-4.6c0.7-1.3,1.7-2.4,2.9-3.1c1.3-0.8,2.7-1.1,4.3-1.1c1.7,0,3.3,0.4,4.7,1.3s2.4,2,3.2,3.5
			s1.1,3.2,1.1,5.1c0,1.9-0.4,3.6-1.1,5.1s-1.8,2.7-3.2,3.5c-1.4,0.8-2.9,1.3-4.7,1.3C1341.7,675,1340.2,674.6,1339,673.9z
			 M1346.5,671.9c1-0.7,1.9-1.6,2.4-2.7c0.6-1.2,0.9-2.5,0.9-4s-0.3-2.8-0.9-4c-0.6-1.2-1.4-2.1-2.4-2.7c-1-0.7-2.2-1-3.5-1
			c-1.3,0-2.5,0.3-3.6,1c-1,0.7-1.9,1.6-2.4,2.7s-0.9,2.5-0.9,4s0.3,2.8,0.9,4s1.4,2.1,2.4,2.7c1,0.7,2.2,1,3.6,1
			C1344.3,672.9,1345.4,672.5,1346.5,671.9z"/>
		<path d="M1362.5,664.1l0.4-0.5l5.6-8h2.7l-6.9,9.7l-0.6,0.8l-5.9,8.4h-2.7L1362.5,664.1z M1362.6,665.9l-0.3-0.6l-6.9-9.7h2.8
			l5.7,8.1l0.3,0.5l7.4,10.4h-2.8L1362.6,665.9z"/>
		<path d="M1412.8,662.9v2.1h-27.6v-2.1H1412.8z"/>
		<path d="M1427.7,672.4l10.8-10.2c1.1-1.1,2-2.1,2.5-3.1s0.8-2,0.8-3.1c0-1.1-0.2-2.1-0.7-2.9s-1.2-1.5-2.1-2
			c-0.9-0.5-1.9-0.7-3.1-0.7c-1.2,0-2.3,0.3-3.3,0.8c-1,0.5-1.7,1.2-2.2,2.1c-0.5,0.9-0.8,2-0.8,3.2h-2.5c0-1.6,0.4-3,1.1-4.3
			c0.8-1.3,1.8-2.3,3.2-3c1.4-0.7,2.9-1.1,4.5-1.1c1.6,0,3,0.3,4.3,1c1.3,0.7,2.3,1.6,3,2.7c0.7,1.2,1.1,2.5,1.1,4
			c0,1.4-0.4,2.7-1.1,4c-0.7,1.3-1.8,2.7-3.4,4.1l-8.7,8.2h13.9v2.3h-17.3V672.4z"/>
		<path d="M1461,667.9h-13.3v-2.2l13.2-17h1.5l0.9,0.3l-12.9,16.7h10.7v-17h2.4v17h4.2v2.2h-4.2v6.7h-2.4V667.9z"/>
		<path d="M1475.4,655.6v4.5h0.1v20.4h-2.4v-24.9H1475.4z M1478.4,673.9c-1.3-0.8-2.2-1.8-2.9-3.1c-0.7-1.3-1.1-2.9-1.1-4.6l1,0.5
			v-3l-1,0.4c0-1.7,0.4-3.3,1.1-4.6c0.7-1.3,1.7-2.4,2.9-3.1c1.3-0.8,2.7-1.1,4.3-1.1c1.7,0,3.3,0.4,4.7,1.3c1.4,0.8,2.4,2,3.2,3.5
			c0.8,1.5,1.1,3.2,1.1,5.1c0,1.9-0.4,3.6-1.1,5.1c-0.8,1.5-1.8,2.7-3.2,3.5c-1.4,0.8-2.9,1.3-4.7,1.3
			C1481,675,1479.6,674.6,1478.4,673.9z M1485.9,671.9c1-0.7,1.9-1.6,2.4-2.7c0.6-1.2,0.9-2.5,0.9-4s-0.3-2.8-0.9-4
			c-0.6-1.2-1.4-2.1-2.4-2.7c-1-0.7-2.2-1-3.5-1c-1.3,0-2.5,0.3-3.6,1s-1.9,1.6-2.4,2.7c-0.6,1.2-0.9,2.5-0.9,4s0.3,2.8,0.9,4
			c0.6,1.2,1.4,2.1,2.4,2.7c1,0.7,2.2,1,3.6,1C1483.6,672.9,1484.8,672.5,1485.9,671.9z"/>
		<path d="M1501.8,664.1l0.4-0.5l5.6-8h2.7l-6.9,9.7l-0.6,0.8l-5.9,8.4h-2.7L1501.8,664.1z M1502,665.9l-0.3-0.6l-6.9-9.7h2.8
			l5.7,8.1l0.3,0.5l7.4,10.4h-2.8L1502,665.9z"/>
	</g>
</g>
</svg>
