<?xml version="1.0" encoding="utf-8"?>
<!-- Generator: Adobe Illustrator 27.3.1, SVG Export Plug-In . SVG Version: 6.00 Build 0)  -->
<svg version="1.1" id="Layer_1" xmlns="http://www.w3.org/2000/svg" xmlns:xlink="http://www.w3.org/1999/xlink" x="0px" y="0px"
	 viewBox="0 0 1920 1080" style="enable-background:new 0 0 1920 1080;" xml:space="preserve">
<style type="text/css">
	.st0{fill:#7F52FF;}
	.st1{fill:#FFFFFF;}
	.st2{fill:#FE2857;}
</style>
<g>
	<g>
		<path class="st0" d="M413.8,686.6c-0.5,0-1,0-1.6-0.1c-10.5-0.9-18.2-10-17.4-20.5c3.1-38.4,34.4-58.4,63.6-58.4h56.3
			c-13.3-14.2-33.9-33.3-42.5-41.2c-7.7-7.1-8.2-19.2-1-26.9c7.1-7.7,19.2-8.2,26.9-1c25,23.2,39.8,37.7,49.2,48.5
			c7.6,8.6,21.6,24.7,15,41.3c-6.9,17.5-27.9,17.3-38,17.3h-65.9c-8.8,0-24.2,5-25.8,23.5C431.9,679.1,423.6,686.6,413.8,686.6z"/>
	</g>
	<g>
		<path class="st0" d="M363.4,809.2c-10.5,0-19-8.5-19-19V775c-28.4-6.8-56.8-27.9-74.9-56.8c-12.3-19.7-19.6-42.4-20.9-65.6
			c-1.5-26.4,4.3-53.2,17.2-79.8c4.6-9.4,16-13.4,25.4-8.8c9.4,4.6,13.4,16,8.8,25.4c-25.2,51.9-9.7,90.3,1.8,108.7
			c12.5,19.9,37.1,41.3,61.7,41.3c0,0,0,0,0.1,0c5,0,9.9,2,13.4,5.6c3.6,3.6,5.6,8.4,5.6,13.4v31.9
			C382.4,800.7,373.9,809.2,363.4,809.2z"/>
	</g>
	<g>
		<path class="st0" d="M280.7,809.2h-33.1c-10.5,0-19-8.5-19-19s8.5-19,19-19h18.3l47.9-189.8c2.6-10.2,12.9-16.3,23.1-13.8
			c10.2,2.6,16.3,12.9,13.8,23.1l-51.5,204.2C297,803.3,289.4,809.2,280.7,809.2z"/>
	</g>
	<g>
		<polygon points="140.4,610.2 159.3,710 221.9,710 240.6,610.2 		"/>
	</g>
	<g>
		<path class="st0" d="M155.5,681.2c-41.6,0-73.4-23.6-84.4-63.5c-7-25.4-0.1-57.5,17.7-81.8c18.3-25.1,46.1-39.6,78.3-41
			c10.5-0.4,19.3,7.7,19.8,18.2c0.4,10.5-7.7,19.3-18.2,19.8c-26.1,1.1-41.1,14.4-49.1,25.4c-12.6,17.3-14.9,37.7-11.7,49.3
			c9.5,34.4,38.7,36.8,55.3,35.2c10.4-1,19.7,6.6,20.8,17c1,10.4-6.6,19.7-17,20.8C163,681,159.2,681.2,155.5,681.2z"/>
	</g>
	<g>
		<g>
			<g>
				<g>
					<path class="st0" d="M193.6,585.5l255,35.8c19.9,2.8,38.2-11,41-30.9L518,388.8c4.5-32.3-29.7-55.9-58.3-40.3l-101.7,55.8
						c-5.8,3.2-12.9,2.2-17.6-2.5l-82.2-81.6c-23.2-23-62.6-9.7-67.2,22.6l-28.3,201.6C159.8,564.4,173.7,582.7,193.6,585.5z"/>
				</g>
				<g>
					<g>
						<path d="M440.2,600.5l-232.4-32.8c-15.3-2.2-26-16.3-23.8-31.6l14.5-103c2.2-15.3,16.3-26,31.6-23.8l232.4,32.8
							c15.3,2.2,26,16.3,23.8,31.6l-14.5,103C469.6,592,455.5,602.7,440.2,600.5z"/>
					</g>
				</g>
			</g>
		</g>
		<g>
			<g>
				<path class="st1" d="M426.8,496.1c-1.2,8.6-5.7,16.2-12.6,21.4c-6.9,5.2-15.5,7.4-24,6.2c-0.8-0.1-1.5-0.2-2.3-0.4c0,0,0,0,0,0
					c-16.6-3.5-27.7-19.4-25.3-36.2c0.2-1.2,0.4-2.4,0.7-3.5c1.3-5.2-2.1-10.4-7.5-11.1h0c-4.5-0.6-8.8,2.2-10,6.6
					c-0.5,1.8-0.8,3.7-1.1,5.6c-3.7,26.4,13.7,50.9,39.4,56.4c1.2,0.2,2.3,0.5,3.5,0.6c27.6,3.9,53.1-15.3,57-42.9
					c0.3-1.9,0.4-3.8,0.5-5.6c0.1-4.6-3.2-8.4-7.8-9.1l0,0c-5.3-0.7-10.1,3.3-10.2,8.7C427.1,493.7,427,494.9,426.8,496.1z"/>
			</g>
			<g>
				<path class="st1" d="M309,479.5c-1.2,8.6-5.7,16.2-12.6,21.4c-6.9,5.2-15.5,7.4-24,6.2c-0.8-0.1-1.5-0.2-2.3-0.4c0,0,0,0,0,0
					c-16.6-3.5-27.7-19.4-25.3-36.2c0.2-1.2,0.4-2.4,0.7-3.5c1.3-5.2-2.1-10.4-7.5-11.1h0c-4.5-0.6-8.8,2.2-10,6.6
					c-0.5,1.8-0.8,3.7-1.1,5.5c-3.7,26.4,13.7,50.9,39.4,56.4c1.2,0.2,2.3,0.5,3.5,0.6c27.6,3.9,53.1-15.3,57-42.9
					c0.3-1.9,0.4-3.8,0.5-5.6c0.1-4.6-3.2-8.4-7.8-9.1h0c-5.3-0.7-10.1,3.3-10.2,8.7C309.3,477.1,309.2,478.3,309,479.5z"/>
			</g>
		</g>
	</g>
	<g>
		<path class="st0" d="M431.7,809.1c-0.3,0-0.5-0.2-0.5-0.5V645.2c0-0.3,0.2-0.5,0.5-0.5h161.5c0.3,0,0.5,0.2,0.5,0.5
			s-0.2,0.5-0.5,0.5h-161v162.9C432.2,808.8,432,809.1,431.7,809.1z"/>
	</g>
	<g>
		<path class="st1" d="M292.1,564.3c-0.2,0-0.4,0-0.6-0.1c-1.6-0.4-2.6-1.9-2.3-3.6c1-4.8,4.5-7,8.1-7.9c-2.6-4.5-2.1-9.3-2.1-9.6
			c0.2-1.6,1.6-2.8,3.3-2.7c1.6,0.2,2.8,1.6,2.7,3.3c0,0.3-0.5,6.5,4.9,9.2c1.4,0.7,2,2.2,1.5,3.7c-0.5,1.4-2,2.3-3.5,2
			c-0.3-0.1-8.1-1.6-9.1,3.3C294.7,563.3,293.5,564.3,292.1,564.3z"/>
	</g>
	<g>
		<path class="st1" d="M180.5,692.8c-0.4,0-0.9-0.1-1.3-0.3c-1.5-0.7-2.1-2.5-1.4-4L240,559.8c7.4-15.3,25.6-22.2,41.3-15.7l16,6.7
			c1.5,0.6,2.3,2.4,1.6,3.9s-2.4,2.3-3.9,1.6l-16-6.7c-12.8-5.3-27.6,0.3-33.6,12.8l-62.2,128.7
			C182.7,692.2,181.6,692.8,180.5,692.8z"/>
	</g>
</g>
<g>
	<g>
		<g>
			<path class="st0" d="M762.7,602.9c-1.7,0-3.4-0.1-5.1-0.2c-24.2-1.8-52.6-17.2-60.1-55c-2.2-10.9-0.7-21.9,0.7-32.5
				c3-22.9,3.6-33.5-14.6-43.7c-9.2-5.1-12.4-16.7-7.3-25.9c5.1-9.2,16.7-12.4,25.9-7.3c18.1,10.1,29.4,24.1,33.6,41.6
				c3.5,14.3,1.7,28,0.1,40.2c-1,7.9-2,15.3-1.1,20.2c1.4,6.9,6.6,23,25.6,24.4c7.8,0.6,14.2-2,19.8-7.9c5.2-5.6,8.3-12.9,9-17.3
				c1.6-10.4,11.3-17.5,21.7-15.9c10.4,1.6,17.5,11.3,15.9,21.7C823.1,569.9,800.9,602.9,762.7,602.9z"/>
		</g>
		<g>
			<path class="st0" d="M731.6,716.3c-4.9,0-9.7-1.9-13.4-5.6c-7.4-7.4-7.4-19.4,0-26.9l22.6-22.6c3.6-3.6,8.4-5.6,13.4-5.6
				c0,0,0,0,0,0c5,0,9.9,2,13.4,5.6c17.4,17.4,49.9,19.7,72.8,14.5c21.1-4.8,59.2-21.1,78.1-75.6c3.4-9.9,14.2-15.2,24.2-11.7
				c9.9,3.4,15.2,14.2,11.7,24.2c-9.7,28-24.6,51-44.3,68.6c-17.4,15.5-38.5,26.4-61.2,31.6c-33.2,7.6-68.3,2.4-93.1-12.8L745,710.8
				C741.3,714.5,736.5,716.3,731.6,716.3z"/>
		</g>
		<g>
			<path class="st0" d="M960.5,827.6h-33.1c-5.8,0-11.2-2.6-14.8-7.1c-3.6-4.5-5-10.4-3.7-16.1l46.4-204.2
				c2.3-10.2,12.5-16.6,22.7-14.3c10.2,2.3,16.6,12.5,14.3,22.7l-41.1,181h9.3c10.5,0,19,8.5,19,19S971,827.6,960.5,827.6z"/>
		</g>
		<g>
			<g>
				<path class="st0" d="M828.9,633.4l256.9-18c20-1.4,35.1-18.8,33.7-38.8l-14.2-203.1c-2.3-32.5-40.7-48.5-65.4-27.3L952,422
					c-5,4.3-12.2,4.8-17.7,1.2l-97.4-62.7c-27.4-17.7-63.3,3.5-61,36.1l14.2,203.1C791.5,619.7,808.9,634.8,828.9,633.4z"/>
			</g>
			<g>
				<g>
					<path d="M1073.2,596.7L839.1,613c-15.4,1.1-28.8-10.6-29.9-26L802,483.3c-1.1-15.4,10.6-28.8,26-29.9l234.2-16.3
						c15.4-1.1,28.8,10.6,29.9,26l7.2,103.7C1100.3,582.3,1088.6,595.7,1073.2,596.7z"/>
				</g>
			</g>
			<g>
				<g>
					<path class="st1" d="M890.8,489.7c17,0,31.1,13.3,32.3,30.2c0.6,8.6-2.2,17-7.9,23.5s-13.6,10.5-22.2,11.1
						c-0.8,0.1-1.5,0.1-2.3,0.1c-17,0-31.2-13.3-32.3-30.2c-1.2-17.8,12.3-33.4,30.1-34.6C889.3,489.7,890.1,489.7,890.8,489.7
						C890.8,489.7,890.8,489.7,890.8,489.7 M890.8,471.7c-1.2,0-2.3,0-3.5,0.1c-27.8,1.9-48.8,26-46.9,53.8c1.8,26.6,24,47,50.3,47
						c1.2,0,2.3,0,3.5-0.1c27.8-1.9,48.8-26,46.9-53.8C939.3,492.1,917.1,471.7,890.8,471.7L890.8,471.7z"/>
				</g>
				<g>
					<path class="st1" d="M1009.5,481.5c17,0,31.1,13.3,32.3,30.2c0.6,8.6-2.2,17-7.9,23.5c-5.7,6.5-13.6,10.5-22.2,11.1
						c-0.8,0.1-1.5,0.1-2.3,0.1c-17,0-31.2-13.3-32.3-30.2c-0.6-8.6,2.2-17,7.9-23.5c5.7-6.5,13.6-10.5,22.2-11.1
						C1008,481.6,1008.7,481.5,1009.5,481.5C1009.5,481.5,1009.5,481.5,1009.5,481.5 M1009.5,463.5c-1.2,0-2.3,0-3.5,0.1
						c-27.8,1.9-48.8,26-46.9,53.8c1.8,26.6,24,47,50.3,47c1.2,0,2.3,0,3.5-0.1c27.8-1.9,48.8-26,46.9-53.8
						C1057.9,483.9,1035.8,463.5,1009.5,463.5L1009.5,463.5z"/>
				</g>
			</g>
			<g>
				<g>
					<g>
						<path class="st1" d="M932,576.9c7,2.8,15,3.5,22.4,2.8c7.8-0.7,15.6-2.6,22.3-6.7c2-1.2,3-4.1,1.6-6.2c-1.3-2-4-2.9-6.2-1.6
							c-1.4,0.9-2.9,1.6-4.5,2.3c0.7-0.3,0.2-0.1-0.2,0.1c-0.4,0.2-0.9,0.3-1.3,0.5c-0.8,0.3-1.6,0.5-2.4,0.8
							c-1.7,0.5-3.4,0.9-5.1,1.2c-0.5,0.1-1,0.2-1.5,0.3c-0.1,0-1.4,0.2-0.3,0.1c-0.9,0.1-1.9,0.2-2.8,0.3
							c-3.6,0.3-7.1,0.2-10.7-0.2c-0.9-0.1,0.8,0.1-0.4-0.1c-0.4-0.1-0.8-0.1-1.2-0.2c-0.8-0.1-1.6-0.3-2.4-0.5
							c-1.6-0.4-3.3-0.9-4.8-1.6c-2.2-0.9-5,1-5.5,3.1C928.2,574,929.6,576,932,576.9L932,576.9z"/>
					</g>
				</g>
			</g>
		</g>
		<g>
			<g>
				<g>
					<path class="st1" d="M1123.8,579.4c-14.9-1.8-28.9,4.3-37.8,15c-6.2-12.5-18.4-21.7-33.2-23.5c-23.4-2.8-44.7,13.9-47.5,37.4
						c-5.6,47.2,47.8,90,66.7,103.6c21.5-8.7,83.6-37.8,89.2-85C1163.9,603.5,1147.2,582.2,1123.8,579.4z"/>
					<path d="M1071.7,713.6l-0.7-0.5c-9.5-6.8-27.7-21-42.8-39.4c-18.7-22.8-27-44.9-24.5-65.5c2.9-24.2,24.9-41.6,49.1-38.7
						c14.1,1.7,26.5,10,33.4,22.4c9.6-10.4,23.5-15.6,37.7-13.9c11.7,1.4,22.2,7.3,29.5,16.6c7.3,9.3,10.6,20.9,9.2,32.6
						c-2.5,20.7-15.7,40.2-39.2,57.9c-19,14.4-40.1,23.9-50.9,28.3L1071.7,713.6z M1047.6,572.2c-20.6,0-38.4,15.4-40.9,36.3
						c-5.5,46.2,47.8,88.9,65.4,101.7c20.2-8.3,82-37.3,87.5-83.5c1.3-10.9-1.7-21.7-8.5-30.4c-6.8-8.7-16.6-14.1-27.5-15.4l0,0
						c-13.9-1.7-27.5,3.8-36.5,14.5l-1.5,1.8l-1-2.1c-6.2-12.5-18.2-21-32.1-22.7C1050.9,572.3,1049.2,572.2,1047.6,572.2z"/>
				</g>
			</g>
		</g>
	</g>
	<g>
		<path class="st0" d="M1121,724.1c-4.9,0-9.7-1.9-13.4-5.6l-18.7-18.7c-7.4-7.4-7.4-19.5,0-26.9s19.4-7.4,26.9,0l18.7,18.7
			c7.4,7.4,7.4,19.5,0,26.9C1130.7,722.2,1125.9,724.1,1121,724.1z"/>
	</g>
</g>
<g>
	<g>
		<path d="M1564.9,394l-108.4,7.5l16.6-50.4c10.1-30.8,52.4-34,67.1-5.2L1564.9,394z"/>
	</g>
	<g>
		<path class="st0" d="M1271.6,667.6c-5.3,0-10.6-0.2-16-0.7c-10.5-0.9-18.2-10.2-17.2-20.6c0.9-10.5,10.1-18.2,20.6-17.2
			c65.4,5.8,114.9-34.7,134.9-77.5c4.4-9.5,15.8-13.6,25.3-9.2c9.5,4.4,13.6,15.8,9.2,25.3C1404.3,618.9,1347.4,667.6,1271.6,667.6z
			"/>
	</g>
	<g>
		<g>
			<path class="st0" d="M1497.7,788.7c-6.7,0-13.2-3.6-16.7-9.8c-23.9-43.4-38.9-117.6-19.7-169.9c9.8-26.5,27.7-45.3,51.7-54.4
				c9.8-3.7,20.8,1.3,24.5,11.1c3.7,9.8-1.3,20.8-11.1,24.5c-13.8,5.2-23.5,15.7-29.5,32c-14.6,39.6-2.4,102.7,17.3,138.4
				c5.1,9.2,1.7,20.7-7.5,25.8C1504,787.9,1500.8,788.7,1497.7,788.7z"/>
		</g>
		<g>
			<path class="st0" d="M1615.1,696.5c-3.6,0-7.2-1-10.4-3.1c-0.3-0.2-30.3-20-58.9-40c-23.5-16.5-33.9-42.4-26.5-65.9
				c7-22,28-35.7,54.9-35.7c10.5,0,19,8.5,19,19c0,10.5-8.5,19-19,19c-10,0-16.8,3.3-18.6,9.2c-1.9,6.1,1.1,15.7,12.1,23.4
				c28.1,19.7,57.7,39.2,58,39.4c8.8,5.8,11.2,17.6,5.4,26.3C1627.3,693.5,1621.2,696.5,1615.1,696.5z"/>
		</g>
	</g>
	<g>
		<g>
			<path class="st0" d="M1649.6,586.1l-256.9,18c-20,1.4-37.4-13.7-38.8-33.7l-14.2-203.1c-2.3-32.5,33.5-53.7,61-36.1l97.6,62.8
				c5.5,3.6,12.8,3.1,17.7-1.2l87.7-75.7c24.7-21.3,63.1-5.3,65.4,27.2l14.2,203.1C1684.7,567.3,1669.6,584.7,1649.6,586.1z"/>
		</g>
		<g>
			<g>
				<path d="M1395.1,584.4L1614,569c12.7-0.9,22.3-11.9,21.4-24.7l-8-113.5c-0.9-12.7-11.9-22.3-24.7-21.4l-218.8,15.4
					c-12.7,0.9-22.3,11.9-21.4,24.7l8,113.5C1371.3,575.7,1382.4,585.3,1395.1,584.4z"/>
			</g>
		</g>
		<g>
			<g>
				<g>
					<path class="st1" d="M1547.3,453.9c16.9,0,31.1,13.3,32.3,30.2c0.6,8.6-2.2,17-7.9,23.6c-5.7,6.5-13.6,10.5-22.2,11.1
						c-0.8,0.1-1.5,0.1-2.3,0.1c-16.9,0-31.1-13.3-32.3-30.2c-0.6-8.6,2.2-17,7.9-23.6c5.7-6.5,13.6-10.5,22.2-11.1
						C1545.7,453.9,1546.5,453.9,1547.3,453.9 M1547.3,435.9c-1.2,0-2.4,0-3.6,0.1c-27.8,1.9-48.7,26.1-46.8,53.8
						c1.9,26.6,24,46.9,50.3,46.9c1.2,0,2.4,0,3.6-0.1c27.8-1.9,48.7-26.1,46.8-53.8C1595.7,456.2,1573.5,435.9,1547.3,435.9
						L1547.3,435.9z"/>
				</g>
				<g>
					<path class="st1" d="M1428.6,462.2c16.9,0,31.1,13.3,32.3,30.2c0.6,8.6-2.2,17-7.9,23.6c-5.7,6.5-13.6,10.5-22.2,11.1
						c-0.8,0.1-1.5,0.1-2.3,0.1c-16.9,0-31.1-13.3-32.3-30.2c-1.2-17.8,12.3-33.4,30.1-34.6C1427.1,462.2,1427.9,462.2,1428.6,462.2
						 M1428.6,444.2c-1.2,0-2.4,0-3.6,0.1c-27.8,1.9-48.7,26.1-46.8,53.8c1.9,26.6,24,46.9,50.3,46.9c1.2,0,2.4,0,3.6-0.1
						c27.8-1.9,48.8-26.1,46.8-53.8C1477,464.5,1454.9,444.2,1428.6,444.2L1428.6,444.2z"/>
				</g>
			</g>
			<g>
				<g>
					<g>
						<path class="st1" d="M1506,536.7c-1.3,0.7-2.6,1.4-3.9,2.1c-0.3,0.2-0.7,0.3-1,0.5c-0.1,0.1-0.3,0.1-0.4,0.2
							c0.3-0.1,0.3-0.1,0,0c-0.6,0.2-1.2,0.5-1.9,0.7c-1.4,0.5-2.8,0.9-4.2,1.2c-0.6,0.1-1.3,0.3-1.9,0.4c-0.3,0.1-1,0.1-0.3,0.1
							c-0.4,0-0.7,0.1-1.1,0.1c-1.3,0.1-2.7,0.2-4.1,0.1c-0.6,0-1.3-0.1-1.9-0.1c-0.4,0-0.7-0.1-1.1-0.1c0.7,0.1,0,0-0.3-0.1
							c-1.4-0.2-2.8-0.6-4.1-0.9c-0.7-0.2-1.5-0.5-2.2-0.7c-0.8-0.3-1.1-0.4-1.5-0.6c-2.2-0.9-4.9-0.7-6.2,1.6
							c-1,1.9-0.7,5.2,1.6,6.2c6.2,2.7,12.9,4.3,19.7,3.7c6.9-0.6,13.3-2.9,19.2-6.4c2-1.2,2.9-4.1,1.6-6.2
							C1510.8,536.3,1508.1,535.5,1506,536.7L1506,536.7z"/>
					</g>
				</g>
			</g>
		</g>
	</g>
	<g>
		<path class="st0" d="M1840.8,810.1h-501.1c-0.8,0-1.5-0.7-1.5-1.5s0.7-1.5,1.5-1.5h501.1c0.8,0,1.5,0.7,1.5,1.5
			S1841.6,810.1,1840.8,810.1z"/>
	</g>
	<g>
		<path class="st0" d="M1801.8,750.2h-92.1c-0.8,0-1.5-0.7-1.5-1.5s0.7-1.5,1.5-1.5h92.1c0.8,0,1.5,0.7,1.5,1.5
			S1802.6,750.2,1801.8,750.2z"/>
	</g>
	<g>
		<path class="st0" d="M1765.7,780.5h-71.1c-0.8,0-1.5-0.7-1.5-1.5s0.7-1.5,1.5-1.5h71.1c0.8,0,1.5,0.7,1.5,1.5
			S1766.6,780.5,1765.7,780.5z"/>
	</g>
	<g>
		<path class="st0" d="M1776.3,634.8c-22.9,0-44.9-5.2-65.9-15.5c-33.9-16.7-56.8-43.2-70.1-62.4c-5.9-8.6-3.8-20.5,4.9-26.4
			c8.6-5.9,20.5-3.8,26.4,4.9c10.7,15.5,28.9,36.8,55.5,49.8c25,12.3,52.3,14.8,81,7.3c10.2-2.6,20.5,3.5,23.2,13.6
			c2.6,10.2-3.5,20.5-13.6,23.2C1803.7,633,1789.9,634.8,1776.3,634.8z"/>
	</g>
	<g>
		<circle cx="1504.9" cy="311.3" r="15.9"/>
	</g>
	<g>
		<path d="M1777.7,536.4c-0.8,0-1.4-0.6-1.5-1.4c-0.1-0.8,0.6-1.5,1.4-1.6l50.5-3.9c0.8-0.1,1.5,0.6,1.6,1.4
			c0.1,0.8-0.6,1.5-1.4,1.6l-50.5,3.9C1777.8,536.4,1777.8,536.4,1777.7,536.4z"/>
	</g>
	<g>
		<path d="M1777.7,553.4c-0.8,0-1.4-0.6-1.5-1.4c-0.1-0.8,0.6-1.5,1.4-1.6l50.5-3.9c0.8-0.1,1.5,0.6,1.6,1.4
			c0.1,0.8-0.6,1.5-1.4,1.6l-50.5,3.9C1777.8,553.4,1777.8,553.4,1777.7,553.4z"/>
	</g>
	<g>
		<path d="M1777.7,569.7c-0.8,0-1.4-0.6-1.5-1.4c-0.1-0.8,0.6-1.5,1.4-1.6l50.5-3.9c0.8-0.1,1.5,0.6,1.6,1.4
			c0.1,0.8-0.6,1.5-1.4,1.6l-50.5,3.9C1777.8,569.7,1777.8,569.7,1777.7,569.7z"/>
	</g>
	<g>
		<path d="M1777.7,588.8c-0.8,0-1.4-0.6-1.5-1.4c-0.1-0.8,0.6-1.5,1.4-1.6l50.5-3.9c0.8-0.1,1.5,0.6,1.6,1.4
			c0.1,0.8-0.6,1.5-1.4,1.6l-50.5,3.9C1777.8,588.8,1777.8,588.8,1777.7,588.8z"/>
	</g>
	<g>
		<polygon class="st1" points="1343.4,569 1794.8,533.6 1798.4,585.7 1348.1,621 		"/>
		<path d="M1346.7,622.7l-4.9-55.1l454.4-35.6l3.9,55.1l-1.5,0.1L1346.7,622.7z M1345,570.3l4.4,49.1l447.4-35.1l-3.4-49.1
			L1345,570.3z"/>
	</g>
	<g>
		<g>
			<path d="M1831.6,605.7c-2.9-10.1-13.5-15.9-23.6-13c-1.7,0.5-8.9,2.4-19.1,3.4v38.2c15-1.1,26.1-4,29.7-5
				C1828.7,626.3,1834.5,615.8,1831.6,605.7z"/>
		</g>
	</g>
	<g>
		<g>
			<path d="M1238,645.6c1.3-10.4,10.8-17.9,21.2-16.6c1.7,0.2,9.2,1,19.4,0.3l6.1,37.7c-15,1.4-26.4,0.3-30.1-0.2
				C1244.2,665.5,1236.8,656,1238,645.6z"/>
		</g>
	</g>
	<g>
		<g>
			<path d="M1456.7,727.4l1.3,7.1c1.1,5.9-2,11.8-7.4,14.3c-9,4.1-21.3,13.4-21.6,33.5c-0.1,4,1.4,7.2,5.3,7.2h89.6l-20.5-64.5
				c-0.7-1.8-2.4-3-4.3-3h-37.9C1458.4,722,1456.2,724.6,1456.7,727.4z"/>
		</g>
		<g>
			<path d="M1541.6,807.3h-111.6c-9.6,0-18.7-3.8-25.5-10.6l-5.1-5.1c-1.2-1.2-1.2-3.1,0-4.2c1.2-1.2,3.1-1.2,4.2,0l5.1,5.1
				c5.7,5.7,13.3,8.8,21.3,8.8h111.6c1.7,0,3,1.3,3,3S1543.3,807.3,1541.6,807.3z"/>
		</g>
		<g>
			<path d="M1525.6,807.2c-1.3,0-2.4-0.8-2.8-2l-6.8-20.3c-0.5-1.6,0.3-3.3,1.9-3.8c1.6-0.5,3.3,0.3,3.8,1.9l6.8,20.3
				c0.5,1.6-0.3,3.3-1.9,3.8C1526.2,807.1,1525.9,807.2,1525.6,807.2z"/>
		</g>
		<g>
			<path d="M1432,807.1c-1.7,0-3-1.3-3-3v-22c0-1.7,1.3-3,3-3s3,1.3,3,3v22C1435,805.8,1433.7,807.1,1432,807.1z"/>
		</g>
	</g>
	<g>
		<g>
			<path d="M1597.5,694.4l6,4.1c4.9,3.4,6.9,9.7,4.8,15.3c-3.5,9.3-5.6,24.6,8.4,39c2.8,2.8,6.1,4.1,8.9,1.3l63.3-63.3l-60.1-31.2
				c-1.7-0.8-3.8-0.5-5.2,0.9l-26.8,26.8C1594.9,689.5,1595.2,692.8,1597.5,694.4z"/>
		</g>
		<g>
			<path d="M1609.7,780.4h-7.2c-1.7,0-3-1.3-3-3s1.3-3,3-3h7.2c8,0,15.6-3.1,21.3-8.8l78.9-78.9c1.2-1.2,3.1-1.2,4.2,0
				c1.2,1.2,1.2,3.1,0,4.2l-78.9,78.9C1628.4,776.6,1619.3,780.4,1609.7,780.4z"/>
		</g>
		<g>
			<path d="M1700.5,703c-0.5,0-0.9-0.1-1.3-0.3l-19.2-9.6c-1.5-0.7-2.1-2.5-1.3-4c0.7-1.5,2.5-2.1,4-1.3l19.2,9.6
				c1.5,0.7,2.1,2.5,1.3,4C1702.7,702.4,1701.6,703,1700.5,703z"/>
		</g>
		<g>
			<path d="M1634.3,769.2c-0.8,0-1.5-0.3-2.1-0.9l-15.6-15.6c-1.2-1.2-1.2-3.1,0-4.2c1.2-1.2,3.1-1.2,4.2,0l15.6,15.6
				c1.2,1.2,1.2,3.1,0,4.2C1635.9,768.9,1635.1,769.2,1634.3,769.2z"/>
		</g>
	</g>
</g>
</svg>
